<?xml version="1.0" encoding="UTF-8"?>
<svg xmlns="http://www.w3.org/2000/svg" xmlns:xlink="http://www.w3.org/1999/xlink" version="1.1" viewBox="0 0 1134.9 1569.6">
  <!-- Generator: Adobe Illustrator 30.3.0, SVG Export Plug-In . SVG Version: 2.1.3 Build 182)  -->
  <defs>
    <style><![CDATA[
      @import url('https://fonts.googleapis.com/css2?family=Manrope:wght@500;700;800&display=swap');
      .st0, .st1, .st2, .st3, .st4, .st5, .st6, .st7, .st8, .st9, .st10, .st11, .st12 {
        fill: none;
      }

      .st13 {
        filter: url(#drop-shadow-1);
      }

      .st14 {
        filter: url(#drop-shadow-3);
      }

      .st15 {
        filter: url(#drop-shadow-2);
      }

      .st16 {
        filter: url(#drop-shadow-6);
      }

      .st17 {
        filter: url(#drop-shadow-7);
      }

      .st18 {
        filter: url(#drop-shadow-5);
      }

      .st19 {
        filter: url(#drop-shadow-4);
      }

      .st1 {
        stroke-width: 6.8px;
      }

      .st1, .st2, .st3, .st4, .st20, .st6, .st7, .st8, .st21, .st9, .st10, .st11, .st12 {
        stroke-miterlimit: 10;
      }

      .st1, .st9, .st12 {
        stroke: #ab2a37;
      }

      .st2 {
        stroke: #b89e0b;
      }

      .st2, .st5, .st9, .st12 {
        stroke-linecap: round;
      }

      .st2, .st9 {
        stroke-width: 3.2px;
      }

      .st22, .st23, .st24, .st25, .st20, .st26, .st27, .st28, .st29, .st30 {
        fill: #fff;
      }

      .st22, .st24 {
        font-family: 'Manrope', 'Inter', system-ui, sans-serif;
      }

      .st22, .st24, .st31 {
        font-weight: 700;
      }

      .st22, .st30 {
        font-size: 15.9px;
      }

      .st23 {
        font-size: 6.8px;
      }

      .st23, .st25, .st26, .st27, .st28, .st30 {
        font-family: 'Manrope', 'Inter', system-ui, sans-serif;
        font-weight: 500;
      }

      .st32 {
        opacity: .4;
      }

      .st32, .st33 {
        mix-blend-mode: multiply;
      }

      .st3, .st4, .st20, .st7 {
        stroke: #fff;
      }

      .st4, .st21 {
        stroke-width: 3px;
      }

      .st24 {
        font-size: 35px;
      }

      .st34 {
        fill: #b89e0b;
      }

      .st35 {
        fill: #1d1d1b;
      }

      .st5 {
        stroke: #a01d29;
        stroke-dasharray: 0 15;
        stroke-linejoin: round;
        stroke-width: 10px;
      }

      .st25 {
        font-size: 13.2px;
      }

      .st36 {
        isolation: isolate;
      }

      .st20, .st7, .st10 {
        stroke-width: 1.1px;
      }

      .st37, .st31 {
        fill: #ab2a37;
      }

      .st33 {
        fill: #748c65;
      }

      .st6 {
        stroke: #e6007e;
        stroke-width: 3.6px;
      }

      .st8 {
        opacity: .7;
        stroke: #ffed00;
        stroke-width: .9px;
      }

      .st21 {
        fill: #c9b927;
        stroke: #1d1d1b;
      }

      .st10, .st11 {
        stroke: #000;
      }

      .st26 {
        font-size: 13.7px;
      }

      .st38 {
        fill: #ae9210;
      }

      .st27 {
        font-size: 12.9px;
      }

      .st39 {
        fill: #e6007e;
      }

      .st28 {
        font-size: 10.9px;
      }

      .st12 {
        stroke-width: 2px;
      }

      .st40 {
        fill: #4e6cb2;
      }

      .st29 {
        font-family: 'Manrope', 'Inter', system-ui, sans-serif;
        font-size: 40px;
      }

      .st41 {
        fill: #917918;
      }

      .st31 {
        filter: url(#drop-shadow-8);
        font-family: 'Manrope', 'Inter', system-ui, sans-serif;
        font-size: 68px;
      }
    ]]></style>
    <symbol id="Cornice" viewBox="0 0 343.5 103.1">
      <path class="st4" d="M323.2,1.5H20.3C9.9,1.5,1.5,9.9,1.5,20.3v41.1c0,10.4,8.4,18.8,18.8,18.8h16.1l35.5,20.9c1.8,1.1,4.1-.2,4.1-2.4v-18.5s247.1,0,247.1,0c10.4,0,18.8-8.4,18.8-18.8V20.3c0-10.4-8.4-18.8-18.8-18.8Z"/>
    </symbol>
    <symbol id="Nuovo_simbolo_1" viewBox="0 0 526 274.8">
      <path class="st1" d="M486.8,3.4H39.2C19.5,3.4,3.5,25.8,3.4,53.5c0,.1,0,.2,0,.3v110.1c0,3.7.3,7.2.8,10.7,3.5,22.7,17.8,39.8,35,39.8h30.6l67.5,56c3.5,2.9,7.8-.6,7.8-6.3v-49.7s6.7,0,18.7,0h323c17.2,0,31.5-17,35-39.8s.8-7,.8-10.7V53.8c0-.1,0-.2,0-.3-.1-27.7-16.1-50.1-35.8-50.1Z"/>
    </symbol>
    <filter id="drop-shadow-1" x="139.9" y="420.8" width="930.7" height="1034.9" filterUnits="userSpaceOnUse">
      <feOffset dx="5.7" dy="5.7"/>
      <feGaussianBlur result="blur" stdDeviation="2.8"/>
      <feFlood flood-color="#1d1d1b" flood-opacity=".7"/>
      <feComposite in2="blur" operator="in"/>
      <feComposite in="SourceGraphic"/>
    </filter>
    <filter id="drop-shadow-2" x="106.2" y="387.1" width="998.2" height="1102.3" filterUnits="userSpaceOnUse">
      <feOffset dx="5.7" dy="5.7"/>
      <feGaussianBlur result="blur1" stdDeviation="5.7"/>
      <feFlood flood-color="#1d1d1b" flood-opacity=".9"/>
      <feComposite in2="blur1" operator="in"/>
      <feComposite in="SourceGraphic"/>
    </filter>
    <filter id="drop-shadow-3" x="29.5" y="794.2" width="344.6" height="210" filterUnits="userSpaceOnUse">
      <feOffset dx="4.3" dy="2.8"/>
      <feGaussianBlur result="blur2" stdDeviation="2.8"/>
      <feFlood flood-color="#1d1d1b" flood-opacity=".8"/>
      <feComposite in2="blur2" operator="in"/>
      <feComposite in="SourceGraphic"/>
    </filter>
    <filter id="drop-shadow-4" x="74.9" y="70.2" width="551.8" height="254.9" filterUnits="userSpaceOnUse">
      <feOffset dx="-5.7" dy="-2.8"/>
      <feGaussianBlur result="blur3" stdDeviation="4.3"/>
      <feFlood flood-color="#1d1d1b" flood-opacity=".8"/>
      <feComposite in2="blur3" operator="in"/>
      <feComposite in="SourceGraphic"/>
    </filter>
    <filter id="drop-shadow-5" x="24.9" y="1267.2" width="397.9" height="277.7" filterUnits="userSpaceOnUse">
      <feOffset dx="4.3" dy="2.8"/>
      <feGaussianBlur result="blur4" stdDeviation="2.8"/>
      <feFlood flood-color="#1d1d1b" flood-opacity=".8"/>
      <feComposite in2="blur4" operator="in"/>
      <feComposite in="SourceGraphic"/>
    </filter>
    <filter id="drop-shadow-6" x="667.9" y="546.4" width="446.4" height="369.8" filterUnits="userSpaceOnUse">
      <feOffset dx="4.6" dy="0"/>
      <feGaussianBlur result="blur5" stdDeviation="1.5"/>
      <feFlood flood-color="#1d1d1b" flood-opacity=".8"/>
      <feComposite in2="blur5" operator="in"/>
      <feComposite in="SourceGraphic"/>
    </filter>
    <filter id="drop-shadow-7" x="763.4" y="143.8" width="356.4" height="229" filterUnits="userSpaceOnUse">
      <feOffset dx="4.3" dy="0"/>
      <feGaussianBlur result="blur6" stdDeviation="2.8"/>
      <feFlood flood-color="#1d1d1b" flood-opacity=".8"/>
      <feComposite in2="blur6" operator="in"/>
      <feComposite in="SourceGraphic"/>
    </filter>
    <filter id="drop-shadow-8" filterUnits="userSpaceOnUse">
      <feOffset dx="-5.7" dy="-2.8"/>
      <feGaussianBlur result="blur7" stdDeviation="4.3"/>
      <feFlood flood-color="#1d1d1b" flood-opacity=".8"/>
      <feComposite in2="blur7" operator="in"/>
      <feComposite in="SourceGraphic"/>
    </filter>
  </defs>
  <g class="st36">
    <g id="Sfondo">
      <rect class="st33" width="1134.9" height="1569.6"/>
    </g>
    <g id="Mappa">
      <g class="st32">
        <path class="st40" d="M320.4,1081.9c-.6-8-4.4-30.4-10.5-39.6-6.1-9.2-2.7-11.7-4.4-18-1.7-6.3-8.4-14.2-15.1-21.4-6.7-7.1-18.3-6.1-23.3-4.2-4.9,1.9-7,8.6-16.2,16.2-9.3,7.7-30.7,22.4-42.7,22.4s-15.7-3-16.8-8.6c-1-5.6,5.4-15.1,5-18.3-.4-3.2-4-2.8-6.7,1.9-2.7,4.7-6,12.9-8.3,19.4-2.3,6.5-7.1,12.4-1.6,25.4,5.6,13,10.4,13.4,13.1,19.9,2.7,6.5,5.4,21.9,8.1,31.6,2.6,9.7,4.2,10.6,3.2,12.8-.9,2.2-8.3,8.3-8.9,11.7-.6,3.5-3.8,14.5,4.1,15.4,7.9.9,14.4-3.5,11.8,2.4-2.5,5.9-6.1,7.1-7.5,11.3-1.5,4.2-10.2,19.9-12.9,33.9-2.7,14-2.6,31.5,6.6,48.5,9.2,17,21.8,19.3,32.1,16.6,10.3-2.7,9.6-10.1,15.1-22.4,5.4-12.4,10.9-13.4,19.5-11.7,8.6,1.7,7.9,6.4,14.6,11.7,6.7,5.3,12.7-.9,16.5-8.7,3.8-7.8,8.9-21.9,12.5-57.9s-4-54.3-2.1-59.9c1.9-5.7,15.5-22.4,14.9-30.4Z"/>
        <path class="st40" d="M1070.4,1098.2c-3.9-3.3-6.9-6.1-9.5-8.5-3.5-3.2-6.6-6-10.4-9.1-1.1-.8-2.2-1.7-3.4-2.6-6.6-5.1-14.8-11.5-17.8-16-2.1-3.1-4.6-3.9-7.7-4.8-1.8-.6-3.8-1.1-6-2.2l-4.6-2.3c-7.3-3.6-17.3-8.6-20.8-10.6h-.2c-10-5.9-44-25.5-66-32.9-4.4-1.5-8.6-2.9-12.5-4.2-17.4-5.8-29.9-10-37-14.1-7.8-4.5-20-13-21.6-16.7-1.2-2.9-2.6-7.1-.5-10.1.6-.8,1.5-1.7,2.6-2.8,2.6-2.5,6.2-5.9,6.5-9.6.3-4.1,1.6-5.2,4-7.1,1.1-.9,2.6-2,4.3-3.8,4.5-4.6,4.4-16.1,4.3-19.2-5.7-.3-41.3-1.8-51.2.1-12.3,2.4-29.4,4.5-36.9,2.5-.9-.2-1.8-.5-2.9-.8.3,2.5.7,8.2-1.1,15.4-1.5,6.1-5.5,9.2-9.2,11.9-2.4,1.8-4.6,3.4-6,5.8-2,3.2-1.1,4.9,0,6.9.4.8.9,1.7,1.1,2.7,3.2-.6,7.8-.9,8.5,1.1.5,1.4,0,3-.6,5.2-.4,1.3-.9,2.9-1.2,4.8-.9,4.9-.4,6.5,1.6,8.4.8.8,2.1.9,3.7,1.1,2.3.3,5.1.6,7.4,3.2,1.9,2.1,2.2,3.8,2.6,5.5.3,1.7.7,3.4,2.8,5.9,3,3.8,8.7,4.4,13.7,4.9,1.5.1,2.9.3,4.1.5l1.5.2c4.8.7,7.4,1.1,10.9,5.5,2.8,3.6,5.4,5.4,7.1,6.5.4.3.8.6,1.1.8,1,.8,4.3,1.6,6.6,2.1.9-2.4,4.1-9.9,8.8-11.1,1.2-.3,2.2-.6,3.1-1,2.1-.7,3.7-1.2,5.1-.5.9.5,1.6,1.5,2,3,.7,2.3,3.6,5.1,7.3,8.6,3.3,3.1,7.1,6.7,10.6,11.2,3.1,4,5,7.3,6.3,9.7,1.9,3.5,2.9,5.2,5.6,5.9,5,1.2,6.9,1.5,12.9-.8,1.8-.7,3.2-1.4,4.5-2,3-1.5,5.2-2.5,7.9-1.1,2.7,1.3,2.6,7,2.2,14.3-.1,2.1-.2,4,0,5,.4,3.3,7.9,17,13.5,20,4.9,2.7,12.4,4.2,14.3,4.6,1.4-1.7,2.8-3.2,4.4-4.4,8.8-6.5,17.1-5.7,23.2,2.5,3.4,4.5,12.9,15.2,28.1,17.9,5.9,1,10.6,1,14.7,1,5.1,0,9.1-.1,12.9,2.2,6.3,3.7,11.1,16.7,15,28.9,3.1,9.8,7.7,18.9,19.8,19.4,10.1.4,10.5-2.2,11.8-9.4.2-1.3.4-2.7.8-4.2,1.2-5.6,3.5-9.1,5.5-12.2,1.7-2.6,3.2-4.8,3.7-7.8,1-5.7-1.1-15.3-10.7-23.5Z"/>
        <path class="st40" d="M965.2,1245.7c-1.8-3.1-2.5-4.9.8-10.1,2.6-4,1.3-5.5-.4-7.5-1-1.1-2.1-2.4-2.5-4.2-1.2-4.8.7-13.2,2.6-16,.2-.3.1-.4.1-.4-.3-.8-3-1.7-7.3-2.1-1.2-.1-11.5-1.2-17.5-6.9-2.5-2.4-4.3-5.1-5.9-7.6-1.5-2.3-2.9-4.5-4.1-4.9-1.3-.4-4.4-.2-7-.1-3.9.2-5.6.2-6.3-.3-.7-.4-1.2-1.6-2.2-3.8-1.1-2.6-2.7-6.2-4.8-8.4-4-4.2-5.5-7.1-5.4-10.3,0-1.3,1-2.7,2.4-4.5,2.1-2.9,5-6.8,6-13.2,1.8-10.3,2.4-14.1,7.6-19.9.9-.9,1.6-1.8,2.3-2.5,2.1-2.2,3.5-3.8,4.4-5.4-1.5,0-3.9-.1-6.9-1.3-5-1.9-8.8-2.2-14.4-1.2-4.1.7-5,3-6.5,6.4-.4,1-.9,2.1-1.5,3.2-1.7,3.2-2.2,7.2-2.8,11.7-.2,2-.5,4-.9,6.1-1.3,7.1-2.4,11.1-11.7,16.9-2.3,1.5-4.3,2.1-5.9,2.1-3.5,0-5.7-2.7-8.1-5.7-1.3-1.6-2.6-3.2-4.3-4.7-2.6-2.4-5-3.5-7.3-3.4-2.2.1-4.3,1.5-6.6,4.1-3,3.5-7.2,3.9-9.5,3.9,2.1,3.2,3.9,7.1,4.1,11.2.5,9.2,1.9,16,3.9,18.8.4.6,1.5,1.8,2.7,3.2,5,5.6,14.2,16.2,15.9,24.2,1.2,6.2,1.3,9.6,1.4,12.9,0,2,.1,4,.4,6.5.8,6.4,7.7,25.5,12.4,33,4.6,7.3,3.5,15.7.4,20.8-2.3,3.9-6.3,4.6-11,5.3-1.2.2-2.5.4-3.8.7-1.3.3-2.5.5-3.6.7-4.5.8-6.7,1.3-7.1,3.8-.1,1,.1,3.7.4,6.8.9,9.6,2.5,25.8-3.1,32.4-3.9,4.6-6.7,6.9-9,8.7-2,1.6-3.6,2.8-5.2,5.1-3.7,5.2-6.5,17.3,1.5,27.9,3.7,4.8,10.5,7.1,17.7,5.9,4.9-.8,17.2-4.6,23.2-22.3,7.3-21.7,12.7-24.8,20.1-29.2,1.6-.9,3.2-1.9,5-3.1,8.7-6,6.4-21.2,5.4-28.5-.1-.7-.2-1.4-.3-1.9l-.2-1.2c-.8-6-1.6-11.7,1.2-14.8,1.1-1.2,3.4-2.1,6.2-3.1,4.6-1.8,10.3-4,13.5-8.7,5.4-7.9,9.3-7.7,16-4.3,6.4,3.3,17.1,5.8,18.8,3.8,1.9-2.2,1.3-14-1-20.5-.6-1.8-1.3-3.1-2-4.2Z"/>
        <path class="st40" d="M849.6,1150.8c2.7-3.1,5.1-4.6,7.8-4.7,2.7-.2,5.5,1.1,8.5,3.8,1.7,1.6,3.1,3.3,4.4,4.8,3.6,4.4,5.7,7,11.8,3.2,8.7-5.5,9.7-9,10.9-15.8.4-2.1.7-4.1.9-6,.6-4.5,1.1-8.7,3-12.2.6-1.1,1-2.1,1.4-3.1,1.5-3.5,2.8-6.5,7.8-7.4,5.9-1,10-.7,15.3,1.3,3.6,1.3,6.1,1.2,7.2,1.1.1-.4.3-.8.4-1.3.5-2.9,4.7-16.2,11.2-25.2-2.8-.6-9.3-2.1-13.9-4.6-6.3-3.4-14-17.6-14.4-21.3-.1-1.1,0-3,0-5.3.2-4.1.6-11.8-1.3-12.7-1.9-.9-3.3-.3-6.4,1.1-1.3.6-2.8,1.3-4.7,2-6.3,2.4-8.5,2.1-13.9.9-3.5-.8-4.7-3.2-6.7-6.7-1.4-2.5-3.1-5.6-6.2-9.5-3.5-4.4-7.2-7.9-10.4-11-3.9-3.7-7-6.6-7.8-9.4-.3-1.1-.7-1.7-1.2-2-.7-.4-2,0-3.7.6-.9.3-2,.7-3.3,1-3.8.9-7,8-7.9,10.6l-.2.7h0c-.4,1.1-1.1,3.5-1.1,6.5s-.3,2.8-1,3.5c-1,1-2.6.9-5.2.8-.8,0-1.6,0-2.6-.1-2.2,0-3.8-.2-5.1-.3-2.4-.2-3.1-.3-3.7.4-1,1.1-.6,2.5.6,5.2.2.5.9,1.7,1.7,3.3,3.5,6.6,10.7,20.4,12.6,30.7.8,4.7,1.4,7.5,1.8,9.3.7,3.2.7,3.5.6,5.4-.1,1.5.5,4.4,1.2,7.9.7,3.1,1.4,6.6,1.9,10.2.2,2,.6,3.7,1,5.2,1,4.5,1.8,8.1-1.6,12.8-3.5,4.9-10,9.8-12.2,11.5,1.4,1.5,3.1,4.1,4.7,6.7.8,1.2,1.5,2.5,2.1,3.4.5.7,1.3,1.6,2.2,2.7,1.2,1.4,2.7,3.1,4.1,5.1,1.3.1,6.3.4,9.4-3.2Z"/>
        <path class="st40" d="M773.9,971.9c.6-1.9.9-3.2.7-4.1-.4-.5-3.6-.5-6.8,0,0,.2,0,.5-.1.7-1.1,3.9-5.6,3.6-10.7,3.2-1.8-.1-3.6-.3-5.5-.3-5.3,0-9.2,1.8-14.5,4.2-1.8.8-3.8,1.7-5.9,2.6-2.1.9-4.4,1.3-6.6,1.3-7.4,0-15-3.9-20.5-6.7-4-2.1-7.2-3-10-3.8-2.2-.6-4-1.1-5.8-2.1-1.5-.9-3.7-1.4-5.9-1.9-2.4-.6-4.8-1.2-6.6-2.3-.4,3.4-.9,4.9-4.9,7-1,.5-2,.9-3,1.3-3.5,1.3-5.3,2.2-4.9,5.4.3,2.8,1.5,4.5,2.6,6.2.9,1.3,1.7,2.6,2,4.2.2.9.4,1.6.6,2.2.5,1.7.7,2.7-1,4.5-1.6,1.6-3.9,5.5-4.8,6.9,3.7,3,7,8,10.2,15.2,1.7,3.7,3.6,4.9,6.7,6.7,1.3.8,2.8,1.7,4.5,3,5.5,4.1,7.9,6.4,7.9,11s-1.6,4.4-3.3,6.8c-1.8,2.6-3.7,5.2-3,6.9.3.6.5.8.6.8.6.3,2-.3,3.6-1,2.4-1,5.7-2.3,10-2.5,8.6-.3,12.6,1.6,16.8,3.5l.9.4c3.9,1.8,5.7,7.4,5.3,16.6,0,.9-.1,1.7-.2,2.4-.1,1.1-.2,2,0,2.3.8.8,5.3.2,10.6-.5,4.1-.6,7.4-1.3,10.1-1.9,6.7-1.6,10.3-2.4,15.3,2.6,3.5,3.5,6,7.2,8.5,10.7,2.1,3,4.1,5.9,6.5,8.2,4,4,.7,8.8-1.7,12.4-1,1.6-2,3-2.3,4.1-1,4.3,7.7,13.1,14.3,19.3,8.7,8.1,18.4,16.7,24.2,16.1,3.8-.4,5.1-1.9,6.5-3.6.6-.7,1.2-1.4,2-2,1.8-1.3,5.2-3.3,7.8-3.3s1,.1,1.4.3c1.7-1.2,8.8-6.4,12.3-11.4,2.9-4,2.3-7,1.3-11.4-.3-1.6-.7-3.4-1-5.4-.5-3.5-1.2-7-1.9-10.1-.8-3.7-1.4-6.6-1.3-8.4.1-1.7.1-1.8-.5-4.9-.3-1.8-.9-4.6-1.8-9.3-1.8-10.1-9-23.7-12.4-30.2-.9-1.7-1.5-2.9-1.8-3.5-1.1-2.5-2.1-4.9-.3-7,1.2-1.3,2.7-1.2,5.2-.9,1.3.1,2.9.3,5,.3,1,0,1.9,0,2.7.1,2,.1,3.5.1,3.9-.3.3-.3.5-1.1.5-2.3,0-3.1.7-5.6,1.1-6.9-1.8-.4-5.6-1.3-7-2.4-.3-.2-.7-.4-1.1-.7-1.8-1.2-4.5-3.1-7.5-6.8-3-3.8-5.1-4.2-9.8-4.9l-1.5-.2c-1.2-.2-2.6-.3-4-.5-5.3-.5-11.3-1.1-14.8-5.5-2.3-2.9-2.7-4.9-3.1-6.7-.3-1.6-.6-2.9-2.2-4.7-1.8-2.1-4.1-2.4-6.3-2.7-1.8-.2-3.5-.4-4.7-1.6-2.5-2.6-3-4.9-2-10,.4-2,.9-3.6,1.3-4.9Z"/>
        <path class="st40" d="M831.9,1344.1c-3.3-2-10.7-.9-12.8.2-1.9,1-3.7,2.2-5.5,3.4-2.8,1.9-5.5,3.7-8.2,4.1-1.9.3-3.2.2-4.3.2-1.3,0-2.1,0-3.1.6-.6.3-1.1,1.5-1.6,2.6-1.1,2.3-2.5,5.4-6,6.7-4,1.4-10.3,1.2-19.3-.7-2.7-.6-4.5-1.8-6.1-2.8-1.8-1.1-3.1-2-4.9-1.6-2.7.6-5.9,2.9-8.7,4.9-1.2.9-2.4,1.7-3.5,2.4-.4.3-.9.6-1.6,1.1-5.3,3.5-17.7,11.9-31.9,12.1-3.2,0-6.1.1-8.7.1-10.4.2-16.7.3-22.2-.4-4-.6-6.2.4-8.1,1.2-1.2.5-2.3,1-3.6,1h-.3c-2.8-.1-4.8-.2-6.8.3-2.5.6-7.5-.8-8.8-1.8-.2-.2-1.1-.4-1.9-.7-2.3-.7-5.7-1.7-7.4-4.4-2.2-3.5-3-4.7-6-6.5-1-.7-1.9-1.7-2.9-2.7-2.1-2.4-4.5-5-10-5.9-6-.9-10.2-.2-13.6.4-1.2.2-2.4.4-3.4.5-3.2.3-5.5,3.1-8.2,6.9l-.4.7c-2.3,3.3-4.2,6.1-10.1,5.9-3.1-.1-5.6-2.9-8.2-5.8-2.7-3-5.4-6.1-9-6.5-4.9-.6-6.8,2.5-8.5,5.1-.7,1-1.2,1.9-1.9,2.6-.7.6-1.9,1.3-3.3,2.2-3.5,2.2-8.2,5.1-9.7,8.4-2,4.1-5.3,11-1.8,26.1,3.3,14.7,10.8,20.8,16.2,21.5,2,.3,3.6-.4,5.4-1.1,1.7-.7,3.5-1.5,5.8-1.5s4,.5,6.7,1.9c3,1.6,5.4,2.9,7.5,4.1,4.5,2.5,7.7,4.4,12.9,6,8,2.6,11.9,4.3,14.9,6.4.6.4,1.5,1.3,2.8,2.7,6.3,6.5,20.9,21.6,46,29.9,12.3,4,21.2,5.9,28.4,7.4,10.5,2.2,16.2,3.4,20.9,9.3,1.3,1.7,2.8,3.7,4.3,5.8,7.4,10.3,17.6,24.5,31.1,26.4,6.7.9,11.6,1.1,15.6,1.3,5.9.3,9.8.4,14.3,2.7,4.1,2.1,6.4,3.1,7.7,2.6,1-.4,1.8-1.7,2.7-4.4,1.1-3.2.2-7.7-.6-11.7-.9-4.4-1.7-8.1.2-10,.8-.8,2.2-1.9,4.1-3.4,4.9-3.8,14.1-11,12.5-14.8-1.1-2.6-2.5-4.1-3.9-5.7-1.7-1.9-3.4-3.8-4.4-7.3-.3-1.2-.7-2.5-.9-3.6-1.1-4.5-2-8.3-6.4-12.5-5.6-5.4-9.9-18.1-3.6-25,5.9-6.5,8.3-11.4,8.3-16.9s1.1-10.5,3.6-14.1c.7-1,1.8-2.3,3.1-4,3.2-4.1,7.7-9.6,11.6-16.5,3.7-6.4,4.3-11.6,4.8-15.5.2-2,.4-3.5,1-4.6.6-1.2,2.4-2.8,4.4-4.7,2.9-2.6,6.8-6.2,6.8-8.3,0-1-.5-1.7-1.4-2.3Z"/>
        <path class="st40" d="M719.6,927.8l-.3.3c-3.1,3.8-4.9,3.9-14.8,4.1h-.3c-9,.2-13.6,3.2-15.6,4.6l-.5.3c-.4.2-1.1.6-1.9,1-2.5,1.2-6.5,3.2-8.4,5.9-2.2,3.4-3.6,6.3-4,8.7-.1.7.2,1.5.7,2.5.7,1.4,1.5,3.1,1.4,5.5,1.6,1.3,4.3,2,6.9,2.6,2.2.6,4.6,1.1,6.3,2.1,1.6.9,3.4,1.4,5.4,2,2.7.8,6.1,1.7,10.3,3.9,6.9,3.6,17.3,8.9,25.7,5.4,2.2-.9,4.1-1.8,5.9-2.6,5.3-2.5,9.5-4.4,15.2-4.4s3.8.1,5.6.3c5.2.4,8.2.5,8.9-1.9.4-1.5-.1-2.6-.9-4-1-2-2.4-4.5.1-8.6,1.6-2.7,4.1-4.5,6.5-6.3,3.6-2.7,7.2-5.4,8.5-10.9,1.9-8,1.1-14,.9-15.7-3-1-6.5-2.2-10-4-.6-.3-2.1-1.3-5-3.3-4.4-3-10.9-7.5-15.9-10.3-1.5,1.2-6.3,5.2-14.7,9.6-9.4,5-13.2,9.6-16,13.1Z"/>
        <path class="st40" d="M661.7,824.4c-2.5.4-6,1-11,1.4-3.1.2-5.2.4-7.3.7-3.7.4-7.1.8-14.9,1-3.6.1-6.1,1.1-7.3,2.9-1.5,2.2-.7,5.1-.4,5.9,1.2.9,2.1,2,2.5,3.3.1.5.4,1.1.6,1.7.9,2.1,1.9,4.8,0,7.1-1.9,2.3-5.2,3.4-9.9,3.2-1.3,0-2.7-.5-4.1-.9-2.5-.8-4.7-1.5-6.2-.2-2,1.6-2.6,5.3-3,8.4-.1.9-.3,1.7-.4,2.5-.8,4.1-3.5,5.8-6.3,7.2-.8.4-1.3,1-1.4,1.8-.2,1.5.8,3.5,2.8,5.3,1.1,1.1,3.2,2.2,5.5,3.3,4.6,2.4,9.8,5,10.5,9.3.3,1.7.1,2.9-.6,3.9-1.1,1.6-3.3,1.8-5.4,2.1-1.2.2-2.5.3-3.5.8-1.2.5-2.1,1.3-2.8,2-1.3,1.3-2.9,2.7-5.4.6-.6-.5-1.1-1-1.6-1.5-2.6-2.4-4.3-3.8-6.7-2.9-3.3,1.3-5.3,3.6-7.4,6.1l-.5.6c-.9,1.1-1.1,3.2-.4,5.3.3,1,1.5,3.4,4,3.9,1.3.3,2.2.2,3,.2,2.2-.1,3.3.2,6,4.3,2.7,4,7.5,4.3,13.5,4.6,2,.1,4.1.2,6.3.5,5.6.7,8.7,4.5,11.5,7.9,1.8,2.2,3.6,4.3,5.7,5.1,2,.9,4.2.4,6.5,0,3.5-.7,7.4-1.6,11.3,2.4,4,4,9.9,9.4,14.7,13.7,2.5,2.3,4.7,4.3,6,5.6,2.1,2,3.9,3.1,5.7,4.2,1,.6,1.9,1.2,2.8,1.9-.2-1.3-.7-2.4-1.2-3.4-.6-1.2-1.1-2.3-.9-3.6.4-2.6,1.9-5.7,4.3-9.3,2-3.1,6.4-5.2,9-6.5.7-.3,1.3-.7,1.7-.9l.5-.3c2.1-1.4,7.1-4.6,16.5-4.8h.3c9.6-.2,10.9-.2,13.5-3.5l.3-.3c2.9-3.5,6.8-8.3,16.5-13.5,7.3-3.9,12-7.5,13.8-9-1.7-.9-2.9-1.4-3.9-1.8-2.8-1.2-3.9-1.6-9.7-7.9-2.9-3.1-7.3-8.5-12.4-14.8-9-11.1-19.3-23.7-24.8-28.3-9.2-7.5-17.8-14.6-18.9-21.4-.2-.8-.3-2-.6-3.5-.2-1.3-.4-2.8-.7-4.5-2.6.5-9.8,1.9-12,1.9s-2.2.2-4,.5Z"/>
        <path class="st40" d="M578.9,984.3c3.7,2.2,5.5,2.4,7,2.6,1.7.2,3.2.4,6.5,2.8,5.9,4.5,7.3,6.8,7.8,8.4.4.9,6.8,5.9,14.8,3.2,8.6-2.9,12.8-2.4,17.2-.7,4.1,1.6,9.8,1.7,13.7,1.2,1.3-.1,2.9-.7,4.5-1.3,3.5-1.2,7.3-2.6,10.4-1,.9-1.6,3.3-5.5,5-7.2,1.1-1.1,1-1.3.6-2.7-.2-.6-.4-1.4-.6-2.4-.2-1.3-.9-2.4-1.8-3.6-1.2-1.8-2.5-3.8-2.9-7-.6-4.7,2.8-6,6-7.2.9-.4,1.9-.7,2.8-1.2,3.6-1.8,3.7-2.7,4.1-6.6-1.2-1-2.4-1.8-3.7-2.6-1.8-1.1-3.8-2.4-6-4.5-1.4-1.3-3.5-3.2-6-5.5-4.8-4.4-10.7-9.7-14.7-13.8-3.3-3.3-6.4-2.6-9.8-1.9-2.5.5-5,1-7.5,0-2.5-1-4.4-3.3-6.3-5.7-2.7-3.3-5.6-6.7-10.4-7.3-2.1-.2-4.1-.3-6.1-.4-6.3-.3-11.8-.7-14.9-5.4-2.4-3.6-2.9-3.6-4.5-3.5-.8,0-1.9,0-3.5-.2-2.3-.4-4.3-2.4-5.3-5-.9-2.6-.7-5.4.7-6.9l.5-.6c2.1-2.5,4.3-5.1,8.1-6.6,3.6-1.4,6.1,1,8.5,3.2.5.5,1,1,1.6,1.4,1.3,1.1,1.7.8,3.1-.5.8-.8,1.9-1.7,3.4-2.4,1.2-.5,2.6-.7,4-.9,1.8-.2,3.5-.4,4.2-1.4.4-.6.5-1.4.3-2.6-.6-3.5-5.4-5.9-9.6-8.1-2.4-1.2-4.6-2.4-5.9-3.6-2.4-2.2-3.6-4.7-3.2-6.8.2-1.3,1-2.4,2.3-3.1,2.7-1.3,4.7-2.6,5.4-6,.2-.7.3-1.6.4-2.4.6-3.5,1.2-7.5,3.7-9.5,2.2-1.8,5.2-.9,7.8,0,1.3.4,2.6.8,3.7.8,4.1.1,7-.8,8.5-2.6,1.3-1.5.5-3.5-.2-5.4-.3-.7-.5-1.3-.7-1.8-.4-1.5-2.2-2.7-4-3.9-.5-.3-1-.7-1.4-1-1.5-1.1-2.8-2.2-6.1-5.1-1,.3-3.8,1.2-9,4.1-2.6,1.5-3.6,2.7-4.7,3.8-1.6,1.9-3.1,3.7-9.7,6-8.4,3-11.6,5.4-17.3,9.8-1.4,1.1-3,2.3-4.8,3.7-5,3.7-7.2,6.4-8.9,8.6-1.4,1.8-2.7,3.4-4.9,4.7-2.6,1.5-5.6,2.6-8.4,2.6s-4.4-.8-5.8-2.6c-1.6-2-3.9-2.9-7.3-4.4-2.3-1-5.2-2.2-8.6-4.1-6.3-3.5-7.1-9-7.7-13.4-.2-1.7-.4-3.2-.9-4.4-1.1-2.4-1.8-2.4-4.1-2.3-1.1,0-2.5.1-4.1-.1-2.8-.4-4.5-.2-6-.1-1.1.1-2.2.2-3.6,0-2.8-.4-5.1-5-7.6-10-.5-1-1-2-1.5-3-.7-1.3-1.5-2-2.4-2.1-1.2-.2-2.4.6-2.6.8-.2.5-.4,1-.8,1.5-.5,1-1,3.4-1.5,5.9-1.1,5.4-2.5,12.2-5.9,14-2.1,1.1-4.1,1.4-5.9,1.7-2.3.3-4.4.6-6.6,2.5-1.1,1-2,1.7-2.7,2.2-1.8,1.4-2.1,1.6-2.5,3.8-.5,2.4-.5,4.8-.4,6,.6,0,1.2,0,1.9,0,6.5.2,13.3,1.7,17.8,3.8,4.4,2.1,11.2,6.7,13.1,9.3,1,1.3,1.1,3.9,1.3,7.2.2,2.9.4,6.2,1.3,8.7,1.4,3.9,2.7,5.6,3.4,6.5.2.3.4.5.5.7.6.7,7.4,6,16.1,10l.9.4c8.4,3.9,10.7,4.9,13.3,8.2,1,1.2,2.9,4.3,5.3,8.2,4.2,6.7,9.9,15.8,14.8,21.8,7.8,9.6,28,29.8,35.5,34.2Z"/>
        <path class="st40" d="M645.6,737.7c-1.9-9.8-4.9-12.2-8.8-12.9-1.3-.2-2.7-.3-4.3-.5-3.9-.3-8.4-.7-11.8-3.2-1.2-1-3.6-2.5-6.6-4.4-7.6-4.9-19.2-12.4-28.8-21.1-.7-.7-1.4-1.3-2.1-1.9-1.8,2.5-7.6,10.2-11.8,14.2-3.2,3-5.5,4-8,4s-3.2-.4-5.1-.9c-2.9-.8-4.9-3.4-6.7-5.6-1.3-1.7-2.6-3.4-4.1-4-2.6-1.1-5.7.2-8,1.2-.7.3-1.3.6-1.9.8-2.6.8-7.3-.9-10.2-3.1-2.3-1.7-4.6-2.7-11,.7-4.8,2.6-4.9,7.7-4.7,9.4.8,0,1.5.1,2.2.2,2.2.2,4.3.4,6.2.8,7.6,1.3,11.8,7.6,12.2,11.4.4,3.8-2,4.3-8.6,5.5-1.2.2-2.5.4-4,.7-2.1.4-3.9.8-5.6,1.1.2,1.9,1,5.4,2.8,6.5,2.9,1.9,4.2,2.7,8,2.7s13.1,3.4,15.8,5.8c2.5,2.2,10.3,4.9,13.2,4.9s1.5-.2,2.5-.5c2.7-.8,6.3-1.8,10.9,2.2,5.5,4.7,6.7,12.2,8.1,20.9.2,1.1.3,2.2.5,3.4.9,5.3,2.5,8.4,3.9,11.1,1.3,2.4,2.4,4.5,2.6,7.4.4,5.5,13.5,20.8,22,28.4l3.1,2.8c5.9,5.3,7.5,6.8,9.4,8.1.4.3.9.6,1.3.9,0,0,0,0,.1.1-.2-1.5-.1-3.6,1.1-5.4,1.5-2.3,4.4-3.5,8.6-3.7,7.7-.3,11.2-.7,14.8-1,2.1-.2,4.3-.4,7.4-.7,4.9-.3,8.4-.9,10.9-1.3,1.8-.3,3.2-.6,4.3-.6,2,0,9.2-1.3,11.7-1.8-1.9-11.6-5.8-30.1-14.8-43.5-13.1-19.5-15.3-30.9-16.9-39.2Z"/>
        <path class="st40" d="M573,391c-4.1,1.4-9.3,3.2-11.4,5.4-.8.8-1.5,1.6-2.2,2.3-2.6,2.7-4.4,4.7-8.1,5.5-4.1.9-6.6,4-7,6.7-.2,1.9,2,3.7,4.1,5.5.8.7,1.7,1.4,2.4,2.1,3.1,3.1,3.2,6.3,2.1,8.3-.1.3-.3.7-.6,1.3-1.6,3.2-5.2,10.7-9.6,15.1-5.2,5.2-5.3,5.7-4.7,6.8.4.7,1.3,1.8,2.4,3.1,1.7,2,3.7,4.6,5.3,7.3,2.7,4.7,8.2,11.1,10.9,12.1,2,.7,3.8.7,6.4.5,1.1,0,2.4-.1,3.8-.1,4.9,0,7.4.2,9.4,2.5.6.7,3,2.4,5.6,4.3,5.1,3.6,11.4,8.2,13.8,11.3,2.4,3,2.8,4.9,2.8,6.1,4.2-1.5,7.7-3.1,9.1-4.4.9-.8,1.6-2.5,2.4-4.4,1.3-3.1,3-7.1,6.6-10.5,2.5-2.4,5.6-3.4,8.8-2.8,3.7.6,7.1,3.3,8.8,6.7,2.5,5.2,3.9,5.5,9,7h.2c1,.4,2.1.8,3.3,1.2,5.3,1.8,13.3,4.5,17.5,2,2.4-1.5,3.8-3.1,3.9-4.8.2-1.9-1.2-3.5-2.5-4.6-1.8-1.5-4-2.2-6.8-3.1-3.1-1-7-2.2-11.4-5-4.4-2.8-6.2-4.5-6.2-6.3-.1-1.9,1.7-3.3,4-5.1,1.2-1,1.2-1.4,1.2-1.4,0-.3-.9-.9-1.7-1.4-1.3-.9-3-2-4.1-3.8-1.8-2.8-2.3-5.2-1.8-7.3.4-1.7,1.7-3,3.6-4,2-1,3.5-2.9,4-4.9.3-1.5.1-2.9-.6-3.9-.8-1.1-2.9-2-5.1-2.9-3.1-1.3-6.8-2.9-8.1-5.8-.6-1.2-1.2-2.2-1.7-3.1-1.5-2.5-2.8-4.7-.4-8.1,1.8-2.5,7.5-8.1,12.5-13,3-2.9,5.9-5.7,7.1-7.1.7-.8.7-1.1.7-1.1-.2-.2-1.6-.5-2.9-.8-1.9-.4-4.4-1-7.3-2.1-3.8-1.5-12.3-2.7-21.3-3.9-9.3-1.2-18.8-2.6-24.1-4.4-3.5-1.2-6-2.1-7.9-2.7-2.8-1-4.4-1.5-6.4-2.3.5,2.6,1.1,7.2-.8,9-1,1-3.7,1.9-7,3Z"/>
        <path class="st40" d="M486.2,805.9c-1.9,2.3-4.1,4.8-4.6,9.8-.2,1.9-.3,3.4-.4,4.7-.2,2.4-.3,3.9-.6,5.2.7-.2,1.4-.4,2.2-.3,1.5.3,2.7,1.3,3.6,3,.5,1,1,2,1.5,3,2,3.9,4.4,8.7,6.3,9,1.1.2,2.1.1,3.2,0,1.5-.1,3.3-.3,6.4.1,1.5.2,2.8.2,3.8.1,2.4,0,4.2-.2,5.7,3.3.6,1.3.8,3,1.1,4.8.6,4.3,1.2,9.1,6.8,12.1,3.3,1.8,6.2,3,8.4,4,3.6,1.5,6.2,2.6,8,4.9,2.6,3.3,7.9,1.9,12-.4,2-1.1,3-2.5,4.4-4.3,1.8-2.3,4-5.2,9.2-9,1.8-1.4,3.4-2.6,4.8-3.7,5.7-4.4,9.1-7,17.8-10.1,6.2-2.2,7.5-3.8,9-5.5,1.1-1.2,2.3-2.6,5.1-4.2,4.1-2.3,6.8-3.5,8.4-4-.6-.6-1.2-1.1-1.9-1.8l-3.1-2.8c-7.9-7.1-22.2-23.1-22.6-29.6-.2-2.5-1.2-4.4-2.4-6.7-1.4-2.7-3.2-6.1-4.1-11.6-.2-1.1-.4-2.2-.6-3.4-1.3-8.4-2.5-15.7-7.4-19.9-3.9-3.4-6.8-2.6-9.3-1.8-1,.3-2,.6-2.9.6-3.3,0-11.6-2.9-14.4-5.3-2.4-2.1-10.7-5.4-14.7-5.4s-5.9-1-8.9-3c-2.6-1.6-3.4-5.7-3.6-7.6-4.8,1.1-7.8,2.1-8.4,4-2.1,6.2-4.6,16.8-3.7,18.1.3.4,1.5,1,2.6,1.5,3.5,1.7,8.8,4.1,9.6,11,.5,4.4.2,7-1.1,8.4-1,1.2-2.4,1.2-3.5,1.1-1,0-1.8-.2-2.8-.5-2.1-.6-5-1.3-9.1-.6-7,1.3-10.5,5.1-10.2,11.4.1,3.7,1.1,6.1,1.9,8.2.8,2.1,1.6,4.1,1.3,6.9-.3,2.5-1.7,4.2-3.2,6Z"/>
        <path class="st40" d="M564.6,375.4c-3,1.1-8.5,4.8-10.7,7-2.3,2.3-5.2,4.6-8.8,4.5-1.1,0-2,.1-2.7.3-1.2.3-2.3.5-3.8-.7-.4-.3-.9-.8-1.3-1.2-1.8-1.6-3.2-2.7-4-2.1-1.6,1.1-2.4,4.3-2.4,5.7s-1.5,7.3-4.9,8c-.6.1-1.3.2-1.9.3-2.7.4-4.3.8-4.7,2.4-.8,3.1-5.4,9.5-7.4,11.5,0,0-.2.2-.1.6.1,2.1,3.9,6.4,4.9,7.2.2.2,1.1.6,1.8.9,2.6,1.1,6.1,2.6,6.7,4.7.2.7.1,1.5-.3,2.2-1,1.6-3.3,3.2-5.8,5-2.7,1.9-5.7,4-6.5,5.9-.7,1.6-2.8,3.7-5.2,6-3.3,3.2-7.4,7.2-7.2,10,.1,1.8.4,3.7.7,5.6.7,4.6,1.1,7.2-.2,8.3-.9.8-2.9,1-6.4,1.2-2.7.2-6.1.4-7.3,1.3l-1.1.7c-4.9,3.5-20,13.9-28.4,16.1-9,2.4-9,3.5-9.1,5.6,0,.6.1,1.8.3,3,.6,4.4,1.5,10.4-2.4,11-.4,0-1,0-1.7,0-3.1,0-8.4-.6-13.2-1.2-3.4-.4-6.9-.8-8.3-.8.2,1.1.2,2.3,0,3.7-.4,3.5-2.3,9.4-5.7,11.4-2.9,1.8-7.4,4.4-8.8,9-1.4,4.4,6.8,16.7,16.8,22.8,10.4,6.4,36.9,19.8,44.7,21.9,4.9,1.3,6.6,2.9,8.3,4.5,1,1,2,1.9,3.9,2.8,4.7,2.3,10.9,1.7,14.3,0,1.3-.7,2.4-1.5,3.5-2.4,1.8-1.5,3.7-2.9,6.6-3.4,1.1-.2,2.2-.4,3.2-.7,3.1-.8,6.3-1.6,10.6,0,5.1,1.9,10.4,5.8,12.7,7.5l.5.4c1.7,1.2,5.4,5.1,6.7,6.6,1.3-1,3.2-1.8,5.5-2.7,3.4-1.4,7.6-3.2,8.2-5.3.9-3.4-1.2-7.8-6.2-13.4-1.2-1.3-2.1-1.9-2.9-2.4-2.1-1.3-2.7-2.2-2.2-7.9.4-5.1,0-5.7-1-7.7-.7-1.2-1.7-3-2.9-6.5-3.2-9.1-6-17-1.6-19.4,1.2-.7,2.8-1.2,4.7-1.9,4-1.4,9-3.1,10.5-6,2.5-4.9,4.7-8.1,7.4-7.4.8.2,1.4.9,1.8,1.4,1,1.2,1.9,2.4,6.2-.4,1-.7,2-1.3,2.9-2,5.4-3.7,9.6-6.5,16.7-7.4,2.9-.3,6-1.1,8.8-1.9,0,0,0,0,0-.1.3-1.3-.5-3.1-2.4-5.6-2.2-2.9-8.7-7.5-13.5-10.9-3.3-2.4-5.2-3.7-5.9-4.5-1.5-1.7-3.3-1.9-8.1-1.9s-2.6,0-3.7.1c-2.6.1-4.7.2-7-.6-3.4-1.2-9.2-8.3-11.8-12.9-1.5-2.6-3.5-5-5.1-7-1.2-1.5-2.1-2.6-2.5-3.4-1.3-2.5,0-3.8,5-8.8,4.3-4.3,7.7-11.6,9.3-14.7.3-.6.5-1.1.7-1.3.9-1.8.2-4.1-1.8-6.2-.7-.7-1.5-1.3-2.3-2-2.5-2.1-5-4.3-4.7-7.1.4-3.2,3.5-7.1,8.3-8.2,3.1-.7,4.7-2.3,7.2-5,.7-.7,1.4-1.5,2.2-2.4,2.5-2.5,7.6-4.2,12.1-5.7,2.7-.9,5.6-1.9,6.4-2.7,1.2-1.1.8-5.6,0-8.6-4-1.7-9.7-2.3-9.8-2.3h-.4s-.1-.3-.1-.3c-.4-.2-1.8-1-4-.2Z"/>
        <path class="st40" d="M515.9,699.3c6.6-3.5,9.6-2.9,12.8-.6,2.8,2,6.9,3.4,8.7,2.8.5-.2,1-.4,1.7-.7,2.6-1.1,6.1-2.6,9.4-1.2,1.9.9,3.2,2.7,4.7,4.6,1.7,2.2,3.4,4.4,5.8,5,4.5,1.2,6.8,1.8,11.4-2.7,4.1-3.9,10.1-11.9,11.7-14.2-6.6-6.2-11-11-15.2-15.6-2.8-3.1-5.5-6-8.7-9.2-10.3-10.3-15-15.9-16.2-19.4-1.5-4.1-1.4-14.1-1.3-15.3,0-.3.1-.8.2-1.5.4-3.1,1.4-10.5-.8-19-2.5-9.7-2.7-19.2-.7-22.7-1.3-1.3-5-5.2-6.6-6.4l-.5-.3c-2.2-1.7-7.4-5.5-12.3-7.3-3.8-1.4-6.6-.6-9.6.1-1.1.3-2.2.6-3.4.8-2.5.4-4.1,1.7-5.9,3-1.1.9-2.2,1.8-3.7,2.5-3.9,2-10.5,2.7-15.9.1-2.1-1-3.3-2.1-4.4-3.1-.8-.8-1.7-1.6-3-2.4-1.3.8-5.6,2.5-15.5,2.5-1.9,0-3.9,0-5.8,0-11,0-23.5,0-30.9-2.2-3.3-1-6-1.9-8.2-2.7-3-1.1-5.2-1.9-6.1-1.5-.7.3-2,1.4-3.4,2.6-2.3,1.9-4.8,4-6.9,4.7-.6.2-1.1.4-1.7.6-2.6,1-5.5,2.1-9.7.6-2.9-1-5.6-3.6-8-5.9-1.7-1.6-3.2-3-4.4-3.6-1-.4-2.9-.2-5,0-3.6.4-8,1-12.3-1-3.1-1.5-4.8-3.9-6.4-6.2-2-2.9-3.8-5.4-7.9-5.6-4.3-.3-7.9.4-11.3.9-2.9.5-5.6,1-8.2.7-4.9-.5-10.3-2.2-13.9-3.6-2.7-1.1-9.2-.6-11.9,1.3-2.3,1.7-5.8,4.2-5.4,6.5.2.8.7,2,1.1,3.4,1.2,2.9,2.6,6.6,1.9,9.3-1,3.6-5.2,9-10,11.2-.1,0-.2,0-.3.1l-.3,11c1.5.2,4.6,1.1,8.3,5.4,3.2,3.7,6.7,5.9,9.5,7.7,1.3.8,2.5,1.6,3.3,2.3,1.3,1.1,1.6,2.8,1.8,4.3.3,1.9.6,3.1,2.1,3.7,3.1,1.1,4.5.7,10-2.2,5.5-2.8,9.2-3.6,14.3-3,6.1.7,10.9,4.2,12.7,5.7,3.1,2.6,25.8,17.6,36.7,22,10.9,4.4,12.5,4.6,16.1,3.6,1.3-.4,2.3-1,3.4-1.7,1.8-1.2,3.8-2.5,7.9-3,7-.9,17.6,2,24.5,6.9,5.2,3.6,7.7,3.3,12,2.8,1.5-.1,3.1-.3,5.2-.4,1.9,0,3.8-.2,5.5-.3,5.8-.4,10.9-.8,15,1.7,6.1,3.5,10.1,6.6,12.9,10,3,3.6,4.6,8.9,5.3,17.6.2,2.2-.1,4.7-.4,7.3-.7,6.3-1.3,12.3,4.5,15.6,5,2.9,10.4,3.9,15.6,4.6-.1-2.4.2-7.8,5.7-10.7Z"/>
        <path class="st40" d="M388.8,371.2c1.2,1.1,2.5,2.2,3.1,3.5.7,1.7.4,6.5.3,8.1,2.4,2.5,15.2,15.8,16.4,18.9,1,2.5-.5,4-2.9,6.6-1.4,1.5-3.4,3.6-5.6,6.6-4.3,5.9-2.1,22.4-.9,31.3.4,2.9.7,5,.7,6.1,0,5.3-2.4,10.2-7.2,15.1-4.7,4.7-5,6.8-2.1,15,2.5,7.2,8.5,6.7,12.1,6.4h.8c.9-.1,2.3-.3,3.9-.6,5.7-.9,10.6-1.6,12.6-.3,1.6,1,1.9,4.3,2.1,9.1,0,1.5.1,3.4.3,4.7,0,.1.2.5.4,1.1,1.2,0,4.2.3,8.8.8,5.4.7,12.2,1.5,14.4,1.1,2.2-.3,1.4-5.8,1-9-.2-1.4-.4-2.6-.3-3.4.1-3.5,1.5-4.8,10.4-7.2,5.4-1.4,14.8-6.8,27.9-15.9l1.1-.8c1.6-1.1,4.9-1.3,8.2-1.6,1.9-.1,4.9-.3,5.3-.8.6-.6,0-4.3-.4-6.8-.3-1.9-.6-4-.7-5.8-.2-3.5,4-7.6,7.7-11.3,2.2-2.1,4.3-4.2,4.8-5.5,1-2.3,4.1-4.5,7.1-6.7,2.2-1.6,4.5-3.2,5.3-4.5.2-.3.2-.6.2-.7-.4-1.4-3.9-2.8-5.8-3.6-1.2-.5-1.9-.8-2.2-1.1-.9-.8-5.4-5.5-5.5-8.5,0-1,.3-1.6.7-1.9,1.9-1.9,6.2-7.9,6.9-10.7.7-2.9,3.6-3.3,6.1-3.7.7,0,1.3-.2,1.9-.3,2.2-.5,3.5-5,3.5-6.3s.8-5.4,3.1-7.1c2.1-1.5,4.4.6,6.2,2.2.4.4.9.8,1.3,1.1.9.7,1.3.6,2.4.4.8-.2,1.7-.4,3.1-.3,3.1.1,5.6-2,7.6-4,2.3-2.3,8-6.1,11.3-7.4,1.2-.4,2.2-.5,3-.4-1.8-2.4-5.1-5.9-9.3-6.7-2.7-.5-4.5-.3-5.9-.1-2.1.2-3.8.4-6.3-1.9-2.2-2-2.9-3.8-3.5-5.5-.5-1.3-.9-2.5-2.1-3.8l-.8-1c-2.5-2.8-4.5-5.1-7.2-9.7-1.6-2.8-2.1-4.9-1.6-6.8.5-1.6,1.8-2.9,4.1-4,1.6-.8,2.2-1.7,2.1-2.2-.1-.7-1.5-1.7-5.2-2.1-5.8-.7-19.8-2.3-24.4-.4-4.7,2-35.7,6.4-44.5,7.3-9.2,1-13,2.6-16.1,7-1.3,1.8-1.6,3.9-1.9,6.1-.5,3.2-1,6.6-4.9,8.8-1.2.6-2.2,1.2-3.1,1.8-3.8,2.3-6.2,3.7-12.2,3.5-2,0-3.6,0-4.9,0-3.4,0-5,.1-6.3-1.7-.2-.3-.5-.9-.8-1.5-1.3-2.5-3.2-6.3-8.8-6-8.1.3-14.9,10.3-14.9,10.4-1.9,2.8-2.2,4.1-1.3,5,.5.5,1,1,1.6,1.5Z"/>
        <path class="st40" d="M455.5,854.2c.7-.5,1.5-1.2,2.7-2.1,2.6-2.2,5.1-2.6,7.5-2.9,1.7-.2,3.5-.5,5.4-1.5,2.7-1.4,4.1-8,5-12.8.6-2.9,1-5.2,1.7-6.4,1.3-2.4,1.4-3.2,1.8-8.3.1-1.3.2-2.8.4-4.7.5-5.6,2.9-8.5,4.9-10.8,1.5-1.7,2.6-3.1,2.8-5,.2-2.4-.4-4-1.2-6.1-.9-2.2-1.8-4.7-2-8.7-.3-7.1,3.8-11.7,11.6-13.2,4.5-.8,7.7,0,9.8.6,1,.2,1.8.4,2.4.4,1.1,0,1.8,0,2.2-.6.6-.7,1.2-2.4.6-7.1-.7-5.9-5.3-8-8.6-9.6-1.5-.7-2.7-1.3-3.2-2.1-2-2.8,3.4-19.5,3.5-19.6,1.2-3.6,6.8-4.7,17-6.6,1.5-.3,2.8-.5,4-.8,6.9-1.2,7.5-1.5,7.2-3.5-.4-3.5-4.4-8.8-10.8-10-1.8-.3-3.9-.5-6.1-.8-6.3-.7-13.5-1.4-20.2-5.2-6.8-3.9-6-11-5.3-17.3.3-2.5.5-4.8.3-6.9-.7-8.2-2.2-13.3-4.9-16.6-2.7-3.3-6.5-6.3-12.4-9.7-3.7-2.2-8.5-1.8-14-1.5-1.8.1-3.7.3-5.6.3-1.9,0-3.6.2-5,.4-4.5.5-7.5.8-13.2-3.1-7.6-5.3-17.6-7.3-23.3-6.6-3.7.5-5.5,1.6-7.2,2.8-1.2.8-2.3,1.5-3.9,1.9-4,1.1-5.9.9-17.2-3.7-11-4.5-34-19.6-37.2-22.3-1.7-1.4-6.2-4.7-11.8-5.3-4.8-.6-8.1.2-13.3,2.8-.2.1-.4.2-.6.3.9,1.7,3.2,5.9,4.8,7.7.4.4,1,.9,1.6,1.5,2.9,2.6,7.3,6.6,7.6,13.2.3,8.1,0,10.9-.9,13.7-.7,2.2-2.5,5.8-3.3,7.5,0,0,.1,0,.2,0,9.5,3,15.3,4.4,19.1,5.2,4.6,1.1,7,1.7,10.1,3.8,5.2,3.5,9.5,7.5,11.7,10.7,1.5,2.3,1,6.4.5,11.1-.2,1.8-.5,3.6-.6,5.5v.6c-.4,6-.6,8.1,1.1,15.2,1.7,7,7.5,17.9,15.3,28.5,6.7,9.2,6.4,15.8,6.2,19.3,0,.4,0,.9,0,1.2,0,1-.8,2.7-2.1,5.1-2.8,5.5-7,13.7-4.5,20.9,2.9,8.5,5.7,8.7,10.3,9.1.8,0,1.7.1,2.6.3,5.8.8,11.9-1.6,11.9-1.6l.8-.3.3.7c0,0,1,2.1-.2,5.4l-.3,1c-.8,2.2-1.2,3.3,0,6.8.9,2.5,4.1,5,6.9,7.2,1.7,1.3,3.2,2.6,4.3,3.7.7.8,2.5,2.4,4.5,4.1,5.6,4.9,13.3,11.7,15.2,16.7,2.5,6.8,2.9,8.8.9,12.9-.9,1.8-2.2,3.5-3.3,4.9-1.2,1.6-2.3,3-2.7,4.2-.1.4-.1,1.1.4,1.6.9.8,3.2,1.1,7.2-.5,2.6-1,3.7-2,4.6-2.7.8-.6,1.4-1.1,2.4-1.3,0-1.3-.1-4,.5-6.7.6-2.8,1.1-3.2,3.2-4.8Z"/>
        <path class="st40" d="M241.5,447.5c-1.1,5.9-3.6,9.4-6.5,13.4-1.4,2-2.9,4-4.3,6.6-3.4,6,1.8,13.2,4.9,17.5.6.8,1.1,1.6,1.5,2.2,2.1,3.3,5.7,10.4,3.7,14.1-1.4,2.6-1.2,6.4-.5,16.3v1c.2,1.8.1,4.2-1.4,5-1.9,1-4.7-1.3-8-4-2.1-1.7-4.3-3.5-5.8-4-1.4-.5-2.5-.3-3.1.4-1.1,1.2-1.2,4.4.7,8.1,1.4,2.7,3.8,4.9,6.1,7.1,2.6,2.4,5.2,4.9,6.4,7.9,1.3,3.2,2.2,3.6,3.6,4.2.9.4,1.9.8,3.3,2,.9.7,1.7,1.3,2.5,1.8,2.4,1.6,4.6,3,7.9,9.2,2.7,5,6.9,9.2,12.5,12.3,1.9,1.1,5.1,4.5,6,10.9.3,2.5,2.3,4.9,5.3,6.5,2.7,1.5,5.6,1.9,7.5,1.1,4.3-1.9,8.2-6.8,9.1-10,.6-2.1-.8-5.5-1.8-8.2-.6-1.5-1-2.7-1.2-3.6-.7-3.4,3.3-6.2,6.1-8.2,3.1-2.2,10.4-2.7,13.5-1.5,3.4,1.4,8.7,3,13.4,3.5,2.3.2,4.8-.2,7.7-.7,3.4-.6,7.2-1.2,11.6-1,5,.3,7.2,3.4,9.2,6.4,1.5,2.2,3,4.4,5.7,5.7,3.8,1.8,8,1.2,11.3.8,2.4-.3,4.5-.6,5.9.1,1.5.6,3.1,2.1,4.9,3.9,2.2,2.1,4.8,4.6,7.4,5.5,3.7,1.3,6,.3,8.5-.6.6-.2,1.1-.4,1.7-.6,1.7-.6,4.3-2.7,6.3-4.4,1.5-1.3,2.8-2.4,3.7-2.8,1.6-.7,3.8.1,7.5,1.5,2.1.8,4.8,1.8,8.1,2.7,7.2,2.1,19.5,2.1,30.4,2.1s3.9,0,5.8,0c7.6,0,11.6-1,13.5-1.7-.7-.3-1.5-.6-2.5-.8-7.9-2.1-34.7-15.7-45.2-22.1-10.2-6.2-19.4-19.2-17.5-24.8,1.7-5.1,6.4-8,9.6-9.9,2.9-1.7,4.6-7.1,4.9-10.2.2-1.8,0-3.5-.4-4.5-.1-.3-.2-.7-.3-1.1,0,0,0-.1,0-.1-.2-1.2-.3-2.9-.4-5.1-.1-2.8-.3-7.1-1.3-7.7-1.6-1-7.8,0-11.4.5-1.7.3-3.1.5-4.1.6h-.7c-3.5.3-10.9.9-13.9-7.5-2.9-8.3-2.9-11.4,2.5-16.8,4.5-4.5,6.7-9,6.7-13.8s-.3-3.1-.7-5.9c-1.3-9.8-3.5-26.2,1.2-32.6,2.2-3.1,4.3-5.2,5.7-6.7,2.4-2.6,3.1-3.4,2.6-4.8-.9-2.1-9.9-12-16-18.2-1.3.3-5,1.2-7.6.9-.7-.1-1.3-.1-1.9-.1-1.8,0-3-.1-4-2.6-.3-.8-.6-1.6-.8-2.3-.5-1.7-.8-2.8-2.5-3.9-1.5-.9-4-1.7-6.3-.9-1.8.6-3.2,2.1-4.2,4.4-2.7,6.5-3.6,10.7-.7,14.4,1.2,1.7,2.8,2.9,4.3,4.1,2.1,1.7,4,3.2,4.8,5.6,1.3,3.7,1.2,8.5.4,11.2-.8,2.8-4.9,5-8.5,4.4-.5,0-.9-.1-1.4-.2-2.6-.3-5.1-.6-5.7-5.5-.3-2.3,0-4.6.2-6.6.3-2.4.5-4.4-.2-5.4-1.5-1.8-5.1-2-8.4-.4-.8.4-1.8,1.1-3.1,1.9-4.3,2.9-10.7,7.3-17.7,6.7-8.5-.6-12.3-1.1-13.2-7-.3-1.8,0-3.5.3-5,.6-3,1-5-2.8-6.9-4.3-2.1-9.4-1.9-12.4-.7-1.3.5-1.9,1.1-2.1,1.5-.3.9.3,3.6,1,5.9.8,2.9,1.6,6.1,1.4,8.6-.1,1-.1,1.8-.2,2.5-.1,2.9-.2,4.6-2.7,7.4-.9,1.1-2.7,2.8-4.7,4.8-4.3,4.3-10.1,10.2-12.4,13.7-3.2,4.9-2.7,6.2-1.1,10.5.6,1.5,1.2,2.6,1.8,3.5,1.1,1.9,2.2,3.6.5,6.4-.4.7-.7,1.3-1.1,1.9-1.6,2.9-2.9,5.4-5.9,5.6-4,.2-7-5.9-8.1-8.6-.7-1.6-1.6-3.3-2.5-5-1.4-2.6-2.2-4.2-2.4-5.3,0-.3,0-.8,0-1.3,0-2.6-.2-8-3.5-9.7-.4-.2-.8-.4-1.2-.7-.1,0-2.1-.5-6.1,1-4.4,1.7-7.4,6.5-9,14.3Z"/>
        <path class="st40" d="M331.4,645.1c-.2-5.9-4.3-9.6-7-12-.7-.6-1.3-1.2-1.7-1.7-1.8-2-4.2-6.4-5.1-8.1-4,1.9-5.9,2.4-9.3,1.2-2.5-.9-2.9-3.1-3.2-5-.2-1.3-.4-2.5-1.3-3.2-.7-.7-1.8-1.3-3.1-2.1-2.8-1.8-6.5-4.1-9.9-8-4-4.7-7.2-4.8-7.6-4.8-.7.3-4.9,2-7.5,3.1-3,1.2-9.2,2.3-12.7,1.9-3-.4-4.6-3.6-6-6.5-.4-.8-.8-1.7-1.3-2.4-1.5-2.7-4.4-3.2-8.8-1.6-2.7,1-4.4,4.2-6.1,7.4-.9,1.6-1.8,3.3-2.8,4.7-2.5,3.3-6.7,2.8-11.2,2.2-1.8-.2-3.6-.4-5.4-.4-4,0-5.1,1.9-6.8,5-.7,1.2-1.4,2.6-2.5,4-2.7,3.7-7.6,3-12,2.4-2.2-.3-4.4-.7-6.2-.4-5.1.7-9.2,2.4-12.3,8.7-2.2,4.4-4.1,7-7.2,11.3-1.6,2.1-3.5,4.7-5.8,8.1-5,7.3-8.7,8.6-10.6,8.6h0c0,.3.1.6.1.9v.8c.6,3.3-3.3,12-9,14.2-1.9.8-3.9,1.2-5.9,1.7-3.8.9-7.5,1.7-9.3,4.1-2.5,3.3-1.3,9.9-.6,11.2,2.2.5,19.1,1.6,26.9.8,6.9-.7,11-3.1,14-4.9.4-.2.9-.5,1.3-.7,2.6-1.5,12.3-11.5,20.1-19.6l3.9-3.9c5.1-5.2,8.7-6.9,11.9-8.4,2.2-1,4.2-2,6.5-3.9,2.8-2.4,3.8-4.1,4.7-5.7.9-1.7,1.9-3.5,4.8-5.8,3.3-2.6,6.8-3.4,9.8-4,2.2-.5,4-.9,5.4-1.9,1.7-1.2,2.5-2.5,3.3-3.7.9-1.3,1.7-2.6,3.4-3.7,3.4-2.4,11.8-3.5,14.6-.6s1.8,2.3,3.1,4.3c3.4,5.2,8.4,13,13.9,14.5,5.4,1.5,7.6-.2,9.4-1.6.7-.6,1.4-1.1,2.2-1.3,2.8-.9,9.2,1,10.8,3.2.2.3.5.8.9,1.6,2,4.2,7.2,15.1,23.3,20.9.8-1.5,2.7-5.2,3.3-7.4.8-2.7,1.1-5.3.8-13.1Z"/>
        <path class="st40" d="M154.5,651.9c1.7,1.6,2.6,2.6,3,3.6.8.2,4.1.3,9.8-7.8,2.4-3.4,4.3-6,5.8-8.1,3.1-4.2,4.9-6.8,7.1-11,3.7-7.4,8.7-9.1,13.7-9.7,2-.2,4.4.1,6.6.4,4.3.7,8.3,1.2,10.4-1.6,1-1.3,1.7-2.7,2.4-3.9,1.7-3.2,3.2-5.9,8.3-5.9s3.8.2,5.6.4c4.1.5,7.7.9,9.6-1.6.9-1.3,1.8-2.8,2.7-4.5,1.9-3.5,3.8-7,7.1-8.2,6.5-2.3,9.5,0,10.9,2.4.5.8.9,1.7,1.3,2.6,1.3,2.6,2.6,5.2,4.7,5.5,3.2.4,9.1-.6,11.8-1.7,2.2-.9,5.8-2.4,7.1-2.9l.3-10.9c-.3,0-.6,0-.8,0-1.9,0-4-.6-6.1-1.7-3.4-1.9-5.7-4.8-6.1-7.8-.8-5.8-3.6-8.7-5-9.5-6-3.4-10.5-7.8-13.3-13.1-3-5.7-5-7-7.3-8.5-.8-.6-1.7-1.1-2.7-1.9-1.1-1-2-1.3-2.8-1.7-1.6-.7-2.9-1.2-4.5-5.1-1.1-2.7-3.5-4.9-6-7.3-2.5-2.3-4.9-4.7-6.4-7.6-2-4-2.2-8.1-.5-10.1.7-.8,2.1-1.9,5-.9,1.9.6,4.2,2.5,6.4,4.3,2,1.7,5.2,4.3,6.1,3.8.1,0,.7-.5.5-3.4v-.9c-.7-10.3-1-14.2.7-17.2,1.2-2.3-.9-8.1-3.6-12.3-.4-.6-.9-1.3-1.5-2.1-3.4-4.6-9.1-12.3-5-19.4,1.5-2.6,3-4.7,4.4-6.7,2.8-3.8,5.1-7.2,6.2-12.7,1.6-8.4,5-13.6,10-15.6,1.6-.6,2.9-.9,4-1.1-4.5-3-10-7.6-13-11-1.4-1.6-2.8-3-4-4.2-2.2-2.2-3.8-3.9-4.3-5.1-.2-.7-.3-2.6-.4-7.6-.1-5-.4-14.3-1.2-15.8-2.7.1-21.4,9.9-23.8,18-1.6,5.3-1.9,11.4-2.2,16.4-.2,3.3-.4,6.2-.9,8.1-.7,2.9-2.4,3.9-4.4,5-1.6.9-3.5,2-5.9,4.5-2.3,2.3-3.8,4.3-5.1,5.9-1.3,1.7-2.3,2.9-3.5,3.7-.3.8-1.1,3.8.8,6.5.8,1.1,2,2.2,3.2,3.4,2.6,2.4,5.4,5,6.3,9.1.8,4,.3,6.3-.2,8.8-.2,1.1-.6,2.5-.7,4.1-.2,1.3-.1,2.4-.1,3.2.1,3-.3,3.8-5.1,4.7-2.4.4-5.3.8-8.2,1.2-4.4.6-8.9,1.2-11.3,2-2,.6-7.3,1.4-13.5,2.3-7,1-15,2.2-19,3.4-4.6,1.3-6.6,2.1-7.8,2.6-.8.3-1.4.5-2.2.7-1.6.4-4.5.6-5.8.7-1.3,12.5-4.4,17.4-14,21.9-9.4,4.5-20.6,9-24,9.9-1.5.4-3,.2-4.2.1-.6,0-1.6-.2-1.8,0,0,1.5,2.6,4.6,3.9,6.2l.5.6c.4.4.8.8,1.1,1.1,1.4,1.3,3,2.8,3.2,7.1.3,4.6,3.6,15.2,10.2,20,6.5,4.8,10.2,7.6,10.1,10.9,0,1.8-2,3.8-4,5.9-1.5,1.6-3,3.1-3.5,4.4-.2.6-.7,1.3-1.3,2.2-3.1,5.1-9.7,15.7-3.8,32.6,5.8,16.7,19.6,20,29.7,22.4,2,.4,3.8.9,5.4,1.4,4.4,1.4,9.6,1.7,14.2,1.9,5.2.3,9.4.5,11.3,2.2Z"/>
        <path class="st40" d="M108.4,474.9c5.7,6.6,13.4,15.4,13.1,24.4,1.4,0,3.9-.2,5.3-.6.7-.2,1.2-.4,2-.7,1.3-.5,3.3-1.2,8-2.6,4.1-1.2,12.1-2.4,19.2-3.4,5.8-.9,11.4-1.7,13.2-2.3,2.6-.9,7-1.5,11.6-2.1,2.8-.4,5.7-.8,8.1-1.2,3.8-.7,3.8-.9,3.7-2.9,0-.8,0-2,.1-3.5.2-1.7.5-3,.8-4.2.6-2.6,1-4.4.2-8.1-.7-3.5-3.2-5.8-5.7-8.2-1.3-1.2-2.6-2.4-3.5-3.7-1.8-2.5-1.7-5.2-1.3-6.8-2,.1-4.7-1.7-8.1-4-1.2-.8-2.3-1.6-2.9-1.8-2.5-1.1-15.9-4.5-32.2-1.1-16.6,3.5-27.7,10.7-33.1,14.2-5.6,3.7-6.5,6.5-3.7,11.8.9,1.7,2.9,4,5.2,6.6Z"/>
      </g>
    </g>
    <g id="Percorso">
      <g class="st13">
        <polyline class="st5" points="147.9 633.3 212.8 481.1 443.3 428.7 581.6 459.6 346.8 580.6 581.6 720.3 472.2 777.4 690.6 880.9 787 990 1051.2 1101.4 853.7 1101.4 893.8 1311.3 710.2 1436.3 563.8 930.2 255.1 1129.8"/>
      </g>
      <g id="Tappe" class="st15">
        <circle class="st21" cx="147.9" cy="633.3" r="28.7"/>
        <text class="st29" transform="translate(139.1 645.5)"><tspan x="0" y="0">1</tspan></text>
        <circle class="st21" cx="212.8" cy="481.1" r="28.7"/>
        <text class="st29" transform="translate(201.9 493.4)"><tspan x="0" y="0">2</tspan></text>
        <circle class="st21" cx="442.6" cy="428.7" r="28.7"/>
        <text class="st29" transform="translate(431.2 441)"><tspan x="0" y="0">3</tspan></text>
        <circle class="st21" cx="581.6" cy="459.6" r="28.7"/>
        <text class="st29" transform="translate(569.1 471.9)"><tspan x="0" y="0">4</tspan></text>
        <circle class="st21" cx="346.8" cy="580.6" r="28.7"/>
        <text class="st29" transform="translate(335.4 592.9)"><tspan x="0" y="0">5</tspan></text>
        <circle class="st21" cx="581.6" cy="720.3" r="28.7"/>
        <text class="st29" transform="translate(570 732.6)"><tspan x="0" y="0">6</tspan></text>
        <circle class="st21" cx="472.2" cy="777.4" r="28.7"/>
        <text class="st29" transform="translate(461.7 789.7)"><tspan x="0" y="0">7</tspan></text>
        <circle class="st21" cx="691.2" cy="881.2" r="28.7"/>
        <text class="st29" transform="translate(679.3 893.5)"><tspan x="0" y="0">8</tspan></text>
        <circle class="st21" cx="787.4" cy="990" r="28.7"/>
        <text class="st29" transform="translate(775.7 1002.2)"><tspan x="0" y="0">9</tspan></text>
        <circle class="st21" cx="1051.2" cy="1101.4" r="28.7"/>
        <text class="st29" transform="translate(1029.7 1113.7)"><tspan x="0" y="0">10</tspan></text>
        <circle class="st21" cx="853.7" cy="1101.4" r="28.7"/>
        <text class="st29" transform="translate(836.2 1113.7)"><tspan x="0" y="0">11</tspan></text>
        <circle class="st21" cx="893.8" cy="1311.3" r="28.7"/>
        <text class="st29" transform="translate(874.2 1323.5)"><tspan x="0" y="0">12</tspan></text>
        <circle class="st21" cx="710.6" cy="1436.4" r="28.7"/>
        <text class="st29" transform="translate(690.5 1448.7)"><tspan x="0" y="0">13</tspan></text>
        <circle class="st21" cx="563.8" cy="930.2" r="28.7"/>
        <text class="st29" transform="translate(542.5 942.4)"><tspan x="0" y="0">14</tspan></text>
        <circle class="st21" cx="255.1" cy="1129.8" r="28.7"/>
        <text class="st29" transform="translate(235 1142.1)"><tspan x="0" y="0">15</tspan></text>
      </g>
    </g>
    <g id="Grafici">
      <g class="st14">
        <g>
          <line class="st11" x1="84.5" y1="977.1" x2="360.7" y2="977.1"/>
          <g>
            <line class="st8" x1="84.5" y1="977.1" x2="84.5" y2="972.8"/>
            <line class="st8" x1="103" y1="977.1" x2="103" y2="972.8"/>
            <line class="st8" x1="121.4" y1="977.1" x2="121.4" y2="972.8"/>
            <line class="st8" x1="139.8" y1="977.1" x2="139.8" y2="972.8"/>
            <line class="st8" x1="158.2" y1="977.1" x2="158.2" y2="972.8"/>
            <line class="st8" x1="176.6" y1="977.1" x2="176.6" y2="972.8"/>
            <line class="st8" x1="195" y1="977.1" x2="195" y2="972.8"/>
            <line class="st8" x1="213.4" y1="977.1" x2="213.4" y2="972.8"/>
            <line class="st8" x1="231.8" y1="977.1" x2="231.8" y2="972.8"/>
            <line class="st8" x1="250.2" y1="977.1" x2="250.2" y2="972.8"/>
            <line class="st8" x1="268.6" y1="977.1" x2="268.6" y2="972.8"/>
            <line class="st8" x1="287" y1="977.1" x2="287" y2="972.8"/>
            <line class="st8" x1="305.5" y1="977.1" x2="305.5" y2="972.8"/>
            <line class="st8" x1="323.9" y1="977.1" x2="323.9" y2="972.8"/>
            <line class="st8" x1="342.3" y1="977.1" x2="342.3" y2="972.8"/>
            <line class="st8" x1="360.7" y1="977.1" x2="360.7" y2="972.8"/>
          </g>
        </g>
        <g>
          <g>
            <text class="st27" transform="translate(55.8 981.9)"><tspan x="0" y="0">0Mt</tspan></text>
            <text class="st27" transform="translate(41.4 964.8)"><tspan x="0" y="0">220Mt</tspan></text>
            <text class="st27" transform="translate(39.3 947.7)"><tspan x="0" y="0">440Mt</tspan></text>
            <text class="st27" transform="translate(40.5 930.6)"><tspan x="0" y="0">660Mt</tspan></text>
            <text class="st27" transform="translate(40.1 913.5)"><tspan x="0" y="0">880Mt</tspan></text>
            <text class="st27" transform="translate(35.9 896.4)"><tspan x="0" y="0">1100Mt</tspan></text>
            <text class="st27" transform="translate(35.4 879.3)"><tspan x="0" y="0">1320Mt</tspan></text>
            <text class="st27" transform="translate(34.4 862.3)"><tspan x="0" y="0">1540Mt</tspan></text>
            <text class="st27" transform="translate(35.5 845.2)"><tspan x="0" y="0">1760Mt</tspan></text>
            <text class="st27" transform="translate(34.5 828.1)"><tspan x="0" y="0">1980Mt</tspan></text>
            <text class="st27" transform="translate(33.1 811)"><tspan x="0" y="0">2200Mt</tspan></text>
          </g>
          <line class="st8" x1="84.5" y1="977.1" x2="84.5" y2="806.1"/>
          <g>
            <line class="st8" x1="84.5" y1="977.1" x2="360.7" y2="977.1"/>
            <line class="st8" x1="84.5" y1="960" x2="360.7" y2="960"/>
            <line class="st8" x1="84.5" y1="942.9" x2="360.7" y2="942.9"/>
            <line class="st8" x1="84.5" y1="925.8" x2="360.7" y2="925.8"/>
            <line class="st8" x1="84.5" y1="908.7" x2="360.7" y2="908.7"/>
            <line class="st8" x1="84.5" y1="891.6" x2="360.7" y2="891.6"/>
            <line class="st8" x1="84.5" y1="874.5" x2="360.7" y2="874.5"/>
            <line class="st8" x1="84.5" y1="857.4" x2="360.7" y2="857.4"/>
            <line class="st8" x1="84.5" y1="840.3" x2="360.7" y2="840.3"/>
            <line class="st8" x1="84.5" y1="823.2" x2="360.7" y2="823.2"/>
            <line class="st8" x1="84.5" y1="806.1" x2="360.7" y2="806.1"/>
          </g>
        </g>
        <g>
          <g>
            <rect class="st0" x="87.1" y="942.1" width="13.3" height="35"/>
            <rect class="st37" x="87.1" y="942.1" width="13.1" height="35"/>
            <text class="st28" transform="translate(97.6 973) rotate(-90)"><tspan x="0" y="0">450</tspan></text>
          </g>
          <g>
            <rect class="st0" x="105.5" y="920.4" width="13.3" height="56.7"/>
            <rect class="st37" x="105.5" y="920.4" width="13.1" height="56.7"/>
            <text class="st28" transform="translate(116 950.6) rotate(-90)"><tspan x="0" y="0">730</tspan></text>
          </g>
          <g>
            <rect class="st0" x="123.9" y="883.8" width="13.3" height="93.3"/>
            <rect class="st37" x="123.9" y="883.8" width="13.1" height="93.3"/>
            <text class="st28" transform="translate(134.4 917.1) rotate(-90)"><tspan x="0" y="0">1200</tspan></text>
          </g>
          <g>
            <rect class="st0" x="142.4" y="854.3" width="13.3" height="122.8"/>
            <rect class="st37" x="142.4" y="854.3" width="13.1" height="122.8"/>
            <text class="st28" transform="translate(152.9 887.4) rotate(-90)"><tspan x="0" y="0">1580</tspan></text>
          </g>
          <g>
            <rect class="st0" x="160.8" y="823.6" width="13.3" height="153.5"/>
            <rect class="st37" x="160.8" y="823.6" width="13.1" height="153.5"/>
            <text class="st28" transform="translate(171.3 856) rotate(-90)"><tspan x="0" y="0">1975</tspan></text>
          </g>
          <g>
            <rect class="st0" x="179.2" y="855.8" width="13.3" height="121.2"/>
            <rect class="st37" x="179.2" y="855.8" width="13.1" height="121.2"/>
            <text class="st28" transform="translate(189.7 888.9) rotate(-90)"><tspan x="0" y="0">1560</tspan></text>
          </g>
          <g>
            <rect class="st0" x="197.6" y="857.4" width="13.3" height="119.7"/>
            <rect class="st37" x="197.6" y="857.4" width="13.1" height="119.7"/>
            <text class="st28" transform="translate(208.1 890.7) rotate(-90)"><tspan x="0" y="0">1540</tspan></text>
          </g>
          <g>
            <rect class="st0" x="216" y="810" width="13.3" height="167.1"/>
            <rect class="st37" x="216" y="810" width="13.1" height="167.1"/>
            <text class="st28" transform="translate(226.5 842.8) rotate(-90)"><tspan x="0" y="0">2150</tspan></text>
          </g>
          <g>
            <rect class="st0" x="234.4" y="846.7" width="13.3" height="130.4"/>
            <rect class="st37" x="234.4" y="846.7" width="13.1" height="130.4"/>
            <text class="st28" transform="translate(244.9 879.3) rotate(-90)"><tspan x="0" y="0">1678</tspan></text>
          </g>
          <g>
            <rect class="st0" x="252.8" y="839.5" width="13.3" height="137.6"/>
            <rect class="st37" x="252.8" y="839.5" width="13.1" height="137.6"/>
            <text class="st28" transform="translate(263.3 872) rotate(-90)"><tspan x="0" y="0">1770</tspan></text>
          </g>
          <g>
            <rect class="st0" x="271.2" y="835.6" width="13.3" height="141.5"/>
            <rect class="st37" x="271.2" y="835.6" width="13.1" height="141.5"/>
            <text class="st28" transform="translate(281.7 868.7) rotate(-90)"><tspan x="0" y="0">1820</tspan></text>
          </g>
          <g>
            <rect class="st0" x="289.6" y="900.9" width="13.3" height="76.2"/>
            <rect class="st37" x="289.6" y="900.9" width="13.1" height="76.2"/>
            <text class="st28" transform="translate(300.1 931.7) rotate(-90)"><tspan x="0" y="0">980</tspan></text>
          </g>
          <g>
            <rect class="st0" x="308" y="872.2" width="13.3" height="104.9"/>
            <rect class="st37" x="308" y="872.2" width="13.1" height="104.9"/>
            <text class="st28" transform="translate(318.5 905.1) rotate(-90)"><tspan x="0" y="0">1350</tspan></text>
          </g>
          <g>
            <rect class="st0" x="326.4" y="909.5" width="13.3" height="67.6"/>
            <rect class="st37" x="326.4" y="909.5" width="13.1" height="67.6"/>
            <text class="st28" transform="translate(336.9 939.9) rotate(-90)"><tspan x="0" y="0">870</tspan></text>
          </g>
          <g>
            <rect class="st0" x="344.9" y="926.6" width="13.3" height="50.5"/>
            <rect class="st37" x="344.9" y="926.6" width="13.1" height="50.5"/>
            <text class="st28" transform="translate(355.4 957.2) rotate(-90)"><tspan x="0" y="0">650</tspan></text>
          </g>
        </g>
        <g>
          <text class="st27" transform="translate(344.9 989.5)"><tspan x="0" y="0">15</tspan></text>
          <text class="st27" transform="translate(326.1 989.5)"><tspan x="0" y="0">14</tspan></text>
          <text class="st27" transform="translate(308.1 989.5)"><tspan x="0" y="0">13</tspan></text>
          <text class="st27" transform="translate(289.8 989.5)"><tspan x="0" y="0">12</tspan></text>
          <text class="st27" transform="translate(272.1 989.5)"><tspan x="0" y="0">11</tspan></text>
          <text class="st27" transform="translate(252.4 989.5)"><tspan x="0" y="0">10</tspan></text>
          <text class="st27" transform="translate(237.2 989.5)"><tspan x="0" y="0">9</tspan></text>
          <text class="st27" transform="translate(218.7 989.5)"><tspan x="0" y="0">8</tspan></text>
          <text class="st27" transform="translate(200.8 989.5)"><tspan x="0" y="0">7</tspan></text>
          <text class="st27" transform="translate(182 989.5)"><tspan x="0" y="0">6</tspan></text>
          <text class="st27" transform="translate(163.7 989.5)"><tspan x="0" y="0">5</tspan></text>
          <text class="st27" transform="translate(144.9 989.5)"><tspan x="0" y="0">4</tspan></text>
          <text class="st27" transform="translate(126.9 989.5)"><tspan x="0" y="0">3</tspan></text>
          <text class="st27" transform="translate(108.6 989.5)"><tspan x="0" y="0">2</tspan></text>
          <text class="st27" transform="translate(90.9 989.5)"><tspan x="0" y="0">1</tspan></text>
        </g>
      </g>
      <g>
        <use width="343.5" height="103.1" transform="translate(28.3 681.6) scale(.8 1)" xlink:href="#Cornice"/>
        <text class="st24" transform="translate(77.5 735.8)"><tspan x="0" y="0">ALTITUDIN</tspan></text>
      </g>
      <g>
        <use width="343.5" height="103.1" transform="translate(400.6 1185.7) rotate(-180) scale(.8 -1)" xlink:href="#Cornice"/>
        <text class="st24" transform="translate(189 1240)"><tspan x="0" y="0">CALORIE</tspan></text>
      </g>
      <g>
        <use width="343.5" height="103.1" transform="translate(1078.3 451.3) rotate(-180) scale(.8 -1)" xlink:href="#Cornice"/>
        <text class="st24" transform="translate(828.8 505.6)"><tspan x="0" y="0">PRESTAZIONI</tspan></text>
      </g>
      <g>
        <use width="343.5" height="103.1" transform="translate(766 44.8) scale(.8 1)" xlink:href="#Cornice"/>
        <text class="st24" transform="translate(819.5 99.1)"><tspan x="0" y="0">VELOCITÀ</tspan></text>
      </g>
      <use class="st19" width="526" height="274.8" transform="translate(93.4 86) scale(1 .8)" xlink:href="#Nuovo_simbolo_1"/>
      <g class="st18">
        <g>
          <g>
            <text class="st30" transform="translate(32.3 1529.5)"><tspan x="0" y="0">3000</tspan></text>
            <text class="st30" transform="translate(100.5 1529.5)"><tspan x="0" y="0">3460</tspan></text>
            <text class="st30" transform="translate(168.8 1529.5)"><tspan x="0" y="0">3920</tspan></text>
            <text class="st30" transform="translate(235.8 1529.5)"><tspan x="0" y="0">4380</tspan></text>
            <text class="st30" transform="translate(302.9 1529.5)"><tspan x="0" y="0">4840</tspan></text>
            <text class="st30" transform="translate(371.4 1529.5)"><tspan x="0" y="0">5300</tspan></text>
          </g>
          <line class="st3" x1="52.1" y1="1513.8" x2="390.6" y2="1513.8"/>
          <g>
            <line class="st3" x1="52.1" y1="1513.8" x2="52.1" y2="1507.8"/>
            <line class="st3" x1="119.8" y1="1513.8" x2="119.8" y2="1507.8"/>
            <line class="st3" x1="187.5" y1="1513.8" x2="187.5" y2="1507.8"/>
            <line class="st3" x1="255.2" y1="1513.8" x2="255.2" y2="1507.8"/>
            <line class="st3" x1="322.9" y1="1513.8" x2="322.9" y2="1507.8"/>
            <line class="st3" x1="390.6" y1="1513.8" x2="390.6" y2="1507.8"/>
          </g>
        </g>
        <line class="st3" x1="52.1" y1="1513.8" x2="52.1" y2="1273.1"/>
        <g>
          <g>
            <rect class="st0" x="52.1" y="1290.2" width="105.7" height="10.8"/>
            <polygon class="st41" points="55.5 1301.1 52.1 1295.7 151 1295.7 154.4 1301.1 55.5 1301.1"/>
            <polygon class="st34" points="55.5 1290.2 52.1 1295.7 151 1295.7 154.4 1290.2 55.5 1290.2"/>
            <polygon class="st38" points="154.4 1290.2 151 1295.7 154.4 1301.1 157.8 1295.7 154.4 1290.2"/>
          </g>
          <g>
            <rect class="st0" x="52.1" y="1305.3" width="63" height="10.8"/>
            <polygon class="st41" points="55.5 1316.1 52.1 1310.7 108.4 1310.7 111.7 1316.1 55.5 1316.1"/>
            <polygon class="st34" points="55.5 1305.3 52.1 1310.7 108.4 1310.7 111.7 1305.3 55.5 1305.3"/>
            <polygon class="st38" points="111.7 1305.3 108.4 1310.7 111.7 1316.1 115.1 1310.7 111.7 1305.3"/>
          </g>
          <g>
            <rect class="st0" x="52.1" y="1320.3" width="254.5" height="10.8"/>
            <polygon class="st41" points="55.5 1331.2 52.1 1325.7 299.8 1325.7 303.2 1331.2 55.5 1331.2"/>
            <polygon class="st34" points="55.5 1320.3 52.1 1325.7 299.8 1325.7 303.2 1320.3 55.5 1320.3"/>
            <polygon class="st38" points="303.2 1320.3 299.8 1325.7 303.2 1331.2 306.6 1325.7 303.2 1320.3"/>
          </g>
          <g>
            <rect class="st0" x="52.1" y="1335.4" width="201.5" height="10.8"/>
            <polygon class="st41" points="55.5 1346.2 52.1 1340.8 246.9 1340.8 250.2 1346.2 55.5 1346.2"/>
            <polygon class="st34" points="55.5 1335.4 52.1 1340.8 246.9 1340.8 250.2 1335.4 55.5 1335.4"/>
            <polygon class="st38" points="250.2 1335.4 246.9 1340.8 250.2 1346.2 253.6 1340.8 250.2 1335.4"/>
          </g>
          <g>
            <rect class="st0" x="52.1" y="1350.4" width="340.9" height="10.8"/>
            <polygon class="st41" points="55.5 1361.3 52.1 1355.8 386.2 1355.8 389.6 1361.3 55.5 1361.3"/>
            <polygon class="st34" points="55.5 1350.4 52.1 1355.8 386.2 1355.8 389.6 1350.4 55.5 1350.4"/>
            <polygon class="st38" points="389.6 1350.4 386.2 1355.8 389.6 1361.3 393 1355.8 389.6 1350.4"/>
          </g>
          <g>
            <rect class="st0" x="52.1" y="1365.5" width="225.8" height="10.8"/>
            <polygon class="st41" points="55.5 1376.3 52.1 1370.9 271.1 1370.9 274.5 1376.3 55.5 1376.3"/>
            <polygon class="st34" points="55.5 1365.5 52.1 1370.9 271.1 1370.9 274.5 1365.5 55.5 1365.5"/>
            <polygon class="st38" points="274.5 1365.5 271.1 1370.9 274.5 1376.3 277.9 1370.9 274.5 1365.5"/>
          </g>
          <g>
            <rect class="st0" x="52.1" y="1380.5" width="147.8" height="10.8"/>
            <polygon class="st41" points="55.5 1391.4 52.1 1385.9 193.1 1385.9 196.5 1391.4 55.5 1391.4"/>
            <polygon class="st34" points="55.5 1380.5 52.1 1385.9 193.1 1385.9 196.5 1380.5 55.5 1380.5"/>
            <polygon class="st38" points="196.5 1380.5 193.1 1385.9 196.5 1391.4 199.9 1385.9 196.5 1380.5"/>
          </g>
          <g>
            <rect class="st0" x="52.1" y="1395.6" width="137.9" height="10.8"/>
            <polygon class="st41" points="55.5 1406.4 52.1 1401 183.3 1401 186.7 1406.4 55.5 1406.4"/>
            <polygon class="st34" points="55.5 1395.6 52.1 1401 183.3 1401 186.7 1395.6 55.5 1395.6"/>
            <polygon class="st38" points="186.7 1395.6 183.3 1401 186.7 1406.4 190 1401 186.7 1395.6"/>
          </g>
          <g>
            <rect class="st0" x="52.1" y="1410.6" width="124.5" height="10.8"/>
            <polygon class="st41" points="55.5 1421.4 52.1 1416 169.9 1416 173.3 1421.4 55.5 1421.4"/>
            <polygon class="st34" points="55.5 1410.6 52.1 1416 169.9 1416 173.3 1410.6 55.5 1410.6"/>
            <polygon class="st38" points="173.3 1410.6 169.9 1416 173.3 1421.4 176.6 1416 173.3 1410.6"/>
          </g>
          <g>
            <rect class="st0" x="52.1" y="1425.7" width="111.6" height="10.8"/>
            <polygon class="st41" points="55.5 1436.5 52.1 1431.1 156.9 1431.1 160.3 1436.5 55.5 1436.5"/>
            <polygon class="st34" points="55.5 1425.7 52.1 1431.1 156.9 1431.1 160.3 1425.7 55.5 1425.7"/>
            <polygon class="st38" points="160.3 1425.7 156.9 1431.1 160.3 1436.5 163.7 1431.1 160.3 1425.7"/>
          </g>
          <g>
            <rect class="st0" x="52.1" y="1440.7" width="304.8" height="10.8"/>
            <polygon class="st41" points="55.5 1451.5 52.1 1446.1 350.2 1446.1 353.6 1451.5 55.5 1451.5"/>
            <polygon class="st34" points="55.5 1440.7 52.1 1446.1 350.2 1446.1 353.6 1440.7 55.5 1440.7"/>
            <polygon class="st38" points="353.6 1440.7 350.2 1446.1 353.6 1451.5 356.9 1446.1 353.6 1440.7"/>
          </g>
          <g>
            <rect class="st0" x="52.1" y="1455.7" width="158.9" height="10.8"/>
            <polygon class="st41" points="55.5 1466.6 52.1 1461.2 204.3 1461.2 207.7 1466.6 55.5 1466.6"/>
            <polygon class="st34" points="55.5 1455.7 52.1 1461.2 204.3 1461.2 207.7 1455.7 55.5 1455.7"/>
            <polygon class="st38" points="207.7 1455.7 204.3 1461.2 207.7 1466.6 211.1 1461.2 207.7 1455.7"/>
          </g>
          <g>
            <rect class="st0" x="52.1" y="1470.8" width="229.9" height="10.8"/>
            <polygon class="st41" points="55.5 1481.6 52.1 1476.2 275.3 1476.2 278.6 1481.6 55.5 1481.6"/>
            <polygon class="st34" points="55.5 1470.8 52.1 1476.2 275.3 1476.2 278.6 1470.8 55.5 1470.8"/>
            <polygon class="st38" points="278.6 1470.8 275.3 1476.2 278.6 1481.6 282 1476.2 278.6 1470.8"/>
          </g>
          <g>
            <rect class="st0" x="52.1" y="1485.8" width="107" height="10.8"/>
            <polygon class="st41" points="55.5 1496.7 52.1 1491.3 152.4 1491.3 155.7 1496.7 55.5 1496.7"/>
            <polygon class="st34" points="55.5 1485.8 52.1 1491.3 152.4 1491.3 155.7 1485.8 55.5 1485.8"/>
            <polygon class="st38" points="155.7 1485.8 152.4 1491.3 155.7 1496.7 159.1 1491.3 155.7 1485.8"/>
          </g>
          <g>
            <rect class="st0" x="52.1" y="1500.9" width="219.6" height="10.8"/>
            <polygon class="st41" points="55.5 1511.7 52.1 1506.3 265 1506.3 268.3 1511.7 55.5 1511.7"/>
            <polygon class="st34" points="55.5 1500.9 52.1 1506.3 265 1506.3 268.3 1500.9 55.5 1500.9"/>
            <polygon class="st38" points="268.3 1500.9 265 1506.3 268.3 1511.7 271.7 1506.3 268.3 1500.9"/>
          </g>
        </g>
        <g>
          <text class="st22" transform="translate(39.5 1512.3)"><tspan x="0" y="0">1</tspan></text>
          <text class="st22" transform="translate(37.6 1497.2)"><tspan x="0" y="0">2</tspan></text>
          <text class="st22" transform="translate(37.6 1482.2)"><tspan x="0" y="0">3</tspan></text>
          <text class="st22" transform="translate(36.6 1467.1)"><tspan x="0" y="0">4</tspan></text>
          <text class="st22" transform="translate(37.6 1452.1)"><tspan x="0" y="0">5</tspan></text>
          <text class="st22" transform="translate(37.3 1437)"><tspan x="0" y="0">6</tspan></text>
          <text class="st22" transform="translate(38.2 1422)"><tspan x="0" y="0">7</tspan></text>
          <text class="st22" transform="translate(37.1 1406.9)"><tspan x="0" y="0">8</tspan></text>
          <text class="st22" transform="translate(37.3 1391.9)"><tspan x="0" y="0">9</tspan></text>
          <text class="st22" transform="translate(28.9 1376.8)"><tspan x="0" y="0">10</tspan></text>
          <text class="st22" transform="translate(32.1 1361.8)"><tspan x="0" y="0">11</tspan></text>
          <text class="st22" transform="translate(30.3 1346.7)"><tspan x="0" y="0">12</tspan></text>
          <text class="st22" transform="translate(30.2 1331.7)"><tspan x="0" y="0">13</tspan></text>
          <text class="st22" transform="translate(29.3 1316.7)"><tspan x="0" y="0">14</tspan></text>
          <text class="st22" transform="translate(30.2 1301.6)"><tspan x="0" y="0">15</tspan></text>
          <text/>
        </g>
      </g>
      <g class="st16">
        <g>
          <circle class="st7" cx="893.9" cy="754" r="127.6"/>
          <g>
            <line class="st10" x1="893.9" y1="626.4" x2="893.9" y2="632.8"/>
            <line class="st10" x1="1021.5" y1="754" x2="1015.2" y2="754"/>
            <line class="st10" x1="893.9" y1="881.7" x2="893.9" y2="875.3"/>
            <line class="st10" x1="766.3" y1="754" x2="772.7" y2="754"/>
          </g>
        </g>
        <g>
          <g>
            <text class="st23" transform="translate(902.4 731.1)"><tspan x="0" y="0">2</tspan></text>
            <text class="st23" transform="translate(902.4 705.6)"><tspan x="0" y="0">4</tspan></text>
            <text class="st23" transform="translate(902.4 680)"><tspan x="0" y="0">6</tspan></text>
            <text class="st23" transform="translate(902.4 654.5)"><tspan x="0" y="0">8</tspan></text>
            <text class="st23" transform="translate(902.4 629)"><tspan x="0" y="0">10</tspan></text>
          </g>
          <line class="st20" x1="893.9" y1="754" x2="893.9" y2="626.4"/>
          <g>
            <line class="st20" x1="890.7" y1="728.5" x2="897.1" y2="728.5"/>
            <line class="st20" x1="890.7" y1="703" x2="897.1" y2="703"/>
            <line class="st20" x1="890.7" y1="677.5" x2="897.1" y2="677.5"/>
            <line class="st20" x1="890.7" y1="651.9" x2="897.1" y2="651.9"/>
          </g>
        </g>
        <g>
          <line class="st7" x1="893.9" y1="754" x2="1021.5" y2="754"/>
          <g>
            <line class="st7" x1="919.4" y1="750.9" x2="919.4" y2="757.2"/>
            <line class="st7" x1="945" y1="750.9" x2="945" y2="757.2"/>
            <line class="st7" x1="970.5" y1="750.9" x2="970.5" y2="757.2"/>
            <line class="st7" x1="996" y1="750.9" x2="996" y2="757.2"/>
          </g>
        </g>
        <g>
          <line class="st7" x1="893.9" y1="754" x2="893.9" y2="881.7"/>
          <g>
            <line class="st7" x1="897.1" y1="779.6" x2="890.7" y2="779.6"/>
            <line class="st7" x1="897.1" y1="805.1" x2="890.7" y2="805.1"/>
            <line class="st7" x1="897.1" y1="830.6" x2="890.7" y2="830.6"/>
            <line class="st7" x1="897.1" y1="856.1" x2="890.7" y2="856.1"/>
          </g>
        </g>
        <g>
          <line class="st7" x1="893.9" y1="754" x2="766.3" y2="754"/>
          <g>
            <line class="st7" x1="868.4" y1="757.2" x2="868.4" y2="750.9"/>
            <line class="st7" x1="842.8" y1="757.2" x2="842.8" y2="750.9"/>
            <line class="st7" x1="817.3" y1="757.2" x2="817.3" y2="750.9"/>
            <line class="st7" x1="791.8" y1="757.2" x2="791.8" y2="750.9"/>
          </g>
        </g>
        <g>
          <g>
            <rect class="st6" x="670" y="552.8" width="36.5" height="29.4"/>
            <g>
              <line class="st6" x1="957.7" y1="754" x2="893.9" y2="626.4"/>
              <line class="st6" x1="893.9" y1="843.4" x2="957.7" y2="754"/>
              <line class="st6" x1="791.8" y1="754" x2="893.9" y2="843.4"/>
              <line class="st6" x1="893.9" y1="626.4" x2="791.8" y2="754"/>
            </g>
          </g>
          <g>
            <rect class="st9" x="670" y="596.9" width="36.5" height="29.4"/>
            <g>
              <line class="st9" x1="983.2" y1="754" x2="893.9" y2="690.2"/>
              <line class="st9" x1="893.9" y1="830.6" x2="983.2" y2="754"/>
              <line class="st9" x1="779" y1="754" x2="893.9" y2="830.6"/>
              <line class="st9" x1="893.9" y1="690.2" x2="779" y2="754"/>
            </g>
          </g>
          <g>
            <rect class="st2" x="670" y="641" width="36.5" height="29.4"/>
            <g>
              <line class="st2" x1="1008.8" y1="754" x2="893.9" y2="664.7"/>
              <line class="st2" x1="893.9" y1="881.7" x2="1008.8" y2="754"/>
              <line class="st2" x1="804.6" y1="754" x2="893.9" y2="881.7"/>
              <line class="st2" x1="893.9" y1="664.7" x2="804.6" y2="754"/>
            </g>
          </g>
        </g>
        <g>
          <g>
            <rect class="st39" x="890.7" y="623.2" width="6.5" height="6.5"/>
            <rect class="st39" x="954.5" y="750.8" width="6.5" height="6.5"/>
            <rect class="st39" x="890.7" y="840.1" width="6.5" height="6.5"/>
            <rect class="st39" x="788.6" y="750.8" width="6.5" height="6.5"/>
          </g>
          <g>
            <rect class="st37" x="890.7" y="687" width="6.5" height="6.5"/>
            <rect class="st37" x="980" y="750.8" width="6.5" height="6.5"/>
            <rect class="st37" x="890.7" y="827.4" width="6.5" height="6.5"/>
            <rect class="st37" x="775.8" y="750.8" width="6.5" height="6.5"/>
          </g>
          <g>
            <rect class="st34" x="890.7" y="661.5" width="6.5" height="6.5"/>
            <rect class="st34" x="1005.5" y="750.8" width="6.5" height="6.5"/>
            <rect class="st34" x="890.7" y="878.4" width="6.5" height="6.5"/>
            <rect class="st34" x="801.3" y="750.8" width="6.5" height="6.5"/>
          </g>
        </g>
        <g>
          <text class="st26" transform="translate(711 572.7)"><tspan x="0" y="0">Squadra C</tspan></text>
          <text class="st26" transform="translate(711 616.8)"><tspan x="0" y="0">Squadra B</tspan></text>
          <text class="st26" transform="translate(711 660.9)"><tspan x="0" y="0">Squadra A</tspan></text>
        </g>
        <g>
          <text class="st26" transform="translate(703.8 759.2)"><tspan x="0" y="0">Scalata</tspan></text>
          <text class="st26" transform="translate(863.1 907.9)"><tspan x="0" y="0">Recupero</tspan></text>
          <text class="st26" transform="translate(1037.5 759.2)"><tspan x="0" y="0">Resistenza</tspan></text>
          <text class="st26" transform="translate(871.8 607)"><tspan x="0" y="0">Velcità</tspan></text>
        </g>
      </g>
      <g class="st17">
        <g>
          <line class="st3" x1="788.8" y1="355.7" x2="1070.2" y2="355.7"/>
          <g>
            <line class="st3" x1="788.8" y1="355.7" x2="788.8" y2="350.8"/>
            <line class="st3" x1="807.6" y1="355.7" x2="807.6" y2="350.8"/>
            <line class="st3" x1="826.3" y1="355.7" x2="826.3" y2="350.8"/>
            <line class="st3" x1="845.1" y1="355.7" x2="845.1" y2="350.8"/>
            <line class="st3" x1="863.8" y1="355.7" x2="863.8" y2="350.8"/>
            <line class="st3" x1="882.6" y1="355.7" x2="882.6" y2="350.8"/>
            <line class="st3" x1="901.3" y1="355.7" x2="901.3" y2="350.8"/>
            <line class="st3" x1="920.1" y1="355.7" x2="920.1" y2="350.8"/>
            <line class="st3" x1="938.9" y1="355.7" x2="938.9" y2="350.8"/>
            <line class="st3" x1="957.6" y1="355.7" x2="957.6" y2="350.8"/>
            <line class="st3" x1="976.4" y1="355.7" x2="976.4" y2="350.8"/>
            <line class="st3" x1="995.1" y1="355.7" x2="995.1" y2="350.8"/>
            <line class="st3" x1="1013.9" y1="355.7" x2="1013.9" y2="350.8"/>
            <line class="st3" x1="1032.6" y1="355.7" x2="1032.6" y2="350.8"/>
            <line class="st3" x1="1051.4" y1="355.7" x2="1051.4" y2="350.8"/>
            <line class="st3" x1="1070.2" y1="355.7" x2="1070.2" y2="350.8"/>
          </g>
        </g>
        <g>
          <g>
            <text class="st25" transform="translate(775.9 360.7)"><tspan x="0" y="0">0</tspan></text>
            <text class="st25" transform="translate(770 327.8)"><tspan x="0" y="0">10</tspan></text>
            <text class="st25" transform="translate(768.6 295)"><tspan x="0" y="0">20</tspan></text>
            <text class="st25" transform="translate(768.4 262.1)"><tspan x="0" y="0">30</tspan></text>
            <text class="st25" transform="translate(767.5 229.3)"><tspan x="0" y="0">40</tspan></text>
            <text class="st25" transform="translate(768.4 196.5)"><tspan x="0" y="0">50</tspan></text>
            <text class="st25" transform="translate(768.1 163.6)"><tspan x="0" y="0">60</tspan></text>
          </g>
          <line class="st3" x1="788.8" y1="355.7" x2="788.8" y2="158.7"/>
          <g>
            <line class="st3" x1="788.8" y1="355.7" x2="795.8" y2="355.7"/>
            <line class="st3" x1="788.8" y1="322.9" x2="795.8" y2="322.9"/>
            <line class="st3" x1="788.8" y1="290" x2="795.8" y2="290"/>
            <line class="st3" x1="788.8" y1="257.2" x2="795.8" y2="257.2"/>
            <line class="st3" x1="788.8" y1="224.4" x2="795.8" y2="224.4"/>
            <line class="st3" x1="788.8" y1="191.5" x2="795.8" y2="191.5"/>
            <line class="st3" x1="788.8" y1="158.7" x2="795.8" y2="158.7"/>
          </g>
        </g>
        <g>
          <g>
            <rect class="st34" x="1029.7" y="153.4" width="35.2" height="19.7"/>
            <g>
              <rect class="st34" x="791.4" y="234.2" width="13.5" height="121.5"/>
              <rect class="st34" x="810.2" y="221.1" width="13.5" height="134.6"/>
              <rect class="st34" x="828.9" y="227.6" width="13.5" height="128.1"/>
              <rect class="st34" x="847.7" y="244.1" width="13.5" height="111.6"/>
              <rect class="st34" x="866.5" y="227.6" width="13.5" height="128.1"/>
              <rect class="st34" x="885.2" y="171.8" width="13.5" height="183.9"/>
              <rect class="st34" x="904" y="204.7" width="13.5" height="151.1"/>
              <rect class="st34" x="922.7" y="247.3" width="13.5" height="108.4"/>
              <rect class="st34" x="941.5" y="234.2" width="13.5" height="121.5"/>
              <rect class="st34" x="960.2" y="244.1" width="13.5" height="111.6"/>
              <rect class="st34" x="979" y="237.5" width="13.5" height="118.2"/>
              <rect class="st34" x="997.8" y="237.5" width="13.5" height="118.2"/>
              <rect class="st34" x="1016.5" y="227.6" width="13.5" height="128.1"/>
              <rect class="st34" x="1035.3" y="250.6" width="13.5" height="105.1"/>
              <rect class="st34" x="1054" y="230.9" width="13.5" height="124.8"/>
            </g>
          </g>
          <g>
            <line class="st12" x1="1029.7" y1="192.8" x2="1064.8" y2="192.8"/>
            <g>
              <line class="st12" x1="816.9" y1="326.2" x2="798.2" y2="319.6"/>
              <line class="st12" x1="835.7" y1="326.2" x2="816.9" y2="326.2"/>
              <line class="st12" x1="854.4" y1="329.4" x2="835.7" y2="326.2"/>
              <line class="st12" x1="873.2" y1="322.9" x2="854.4" y2="329.4"/>
              <line class="st12" x1="892" y1="322.9" x2="873.2" y2="322.9"/>
              <line class="st12" x1="910.7" y1="319.6" x2="892" y2="322.9"/>
              <line class="st12" x1="929.5" y1="329.4" x2="910.7" y2="319.6"/>
              <line class="st12" x1="948.2" y1="319.6" x2="929.5" y2="329.4"/>
              <line class="st12" x1="967" y1="322.9" x2="948.2" y2="319.6"/>
              <line class="st12" x1="985.8" y1="329.4" x2="967" y2="322.9"/>
              <line class="st12" x1="1004.5" y1="316.3" x2="985.8" y2="329.4"/>
              <line class="st12" x1="1023.3" y1="319.6" x2="1004.5" y2="316.3"/>
              <line class="st12" x1="1042" y1="322.9" x2="1023.3" y2="319.6"/>
              <line class="st12" x1="1060.8" y1="322.9" x2="1042" y2="322.9"/>
            </g>
          </g>
        </g>
        <g>
          <rect class="st35" x="1044.3" y="189.8" width="6" height="6"/>
          <g>
            <rect class="st35" x="795.2" y="316.6" width="6" height="6"/>
            <rect class="st35" x="813.9" y="323.2" width="6" height="6"/>
            <rect class="st35" x="832.7" y="323.2" width="6" height="6"/>
            <rect class="st35" x="851.4" y="326.4" width="6" height="6"/>
            <rect class="st35" x="870.2" y="319.9" width="6" height="6"/>
            <rect class="st35" x="889" y="319.9" width="6" height="6"/>
            <rect class="st35" x="907.7" y="316.6" width="6" height="6"/>
            <rect class="st35" x="926.5" y="326.4" width="6" height="6"/>
            <rect class="st35" x="945.2" y="316.6" width="6" height="6"/>
            <rect class="st35" x="964" y="319.9" width="6" height="6"/>
            <rect class="st35" x="982.8" y="326.4" width="6" height="6"/>
            <rect class="st35" x="1001.5" y="313.3" width="6" height="6"/>
            <rect class="st35" x="1020.3" y="316.6" width="6" height="6"/>
            <rect class="st35" x="1039" y="319.9" width="6" height="6"/>
            <rect class="st35" x="1057.8" y="319.9" width="6" height="6"/>
          </g>
        </g>
        <g>
          <text class="st25" transform="translate(1069.2 168.2)"><tspan x="0" y="0">Max</tspan></text>
          <text class="st25" transform="translate(1069.2 197.7)"><tspan x="0" y="0">Media</tspan></text>
        </g>
      </g>
      <text class="st31" transform="translate(124 195.6)"><tspan x="0" y="0">ITALIA IN BICI</tspan></text>
    </g>
  </g>
</svg>