<?xml version="1.0" encoding="UTF-8"?>
<svg id="Livello_1" xmlns="http://www.w3.org/2000/svg" version="1.1" viewBox="0 0 841.9 595.3">
  <!-- Generator: Adobe Illustrator 30.3.0, SVG Export Plug-In . SVG Version: 2.1.3 Build 182)  -->
  <defs>
    <style>
      .st0 {
        fill: #1d1d1b;
      }

      .st1 {
        fill: #3282c2;
      }
    </style>
  </defs>
  <g>
    <path class="st0" d="M382.3,273.1c-.4.5-.8.9-1.2,1.3-.4.4-.8.7-1.2,1l53.6,53.6c.4-.5.8-.9,1.2-1.3.4-.4.8-.7,1.2-1.1l-53.6-53.6ZM512.8,274.2c-.4-.4-.7-.8-1.1-1.2l-53.6,53.6c.5.4.9.8,1.3,1.2.4.4.7.8,1.1,1.2l53.6-53.6c-.5-.4-.9-.8-1.3-1.2ZM434.6,196.1c-.4-.4-.7-.8-1.1-1.2l-53.6,53.6c.5.4.9.8,1.3,1.2.4.4.7.8,1.1,1.2l53.6-53.6c-.5-.4-.9-.8-1.3-1.2ZM460.5,194.9c-.4.5-.8.9-1.2,1.3-.4.4-.8.7-1.2,1.1l53.6,53.6c.4-.5.8-.9,1.2-1.3.4-.4.8-.7,1.2-1.1l-53.6-53.6Z"/>
    <path class="st0" d="M448.7,201.2v43.4c-.6,0-1.1,0-1.7,0s-1.1,0-1.7,0v-43.4c.6,0,1.1,0,1.7,0s1.1,0,1.7,0Z"/>
    <path class="st0" d="M448.7,279.4v43.4c-.6,0-1.1,0-1.7,0s-1.1,0-1.7,0v-43.4c.6,0,1.1,0,1.7,0s1.1,0,1.7,0Z"/>
    <path class="st0" d="M429.6,261.9c0,.6,0,1.2,0,1.8h-43.4c.1-1.1.1-2.2,0-3.4h43.4c0,.5,0,1,0,1.6Z"/>
    <path class="st0" d="M507.7,261.9c0,.6,0,1.2,0,1.8h-43.4c.1-1.1.1-2.2,0-3.4h43.4c0,.5,0,1,0,1.6Z"/>
  </g>
  <g>
    <path class="st1" d="M458,192.4c-.4.5-.8.9-1.2,1.3-.4.4-.8.7-1.2,1.1-2.1,1.6-4.5,2.6-6.9,2.9-.6,0-1.1.1-1.7.1s-1.1,0-1.7-.1c-2.5-.3-4.9-1.3-6.9-2.9-.5-.4-.9-.8-1.3-1.2-.4-.4-.7-.8-1.1-1.2-4.3-5.5-3.9-13.5,1.2-18.6,2.7-2.7,6.3-4,9.8-4s7.2,1.4,10,4.2c5,5.1,5.3,13,1.1,18.5Z"/>
    <path class="st1" d="M535,271.9c-2.7,2.7-6.3,4-9.8,4s-6.1-1-8.6-3c-.5-.4-.9-.7-1.3-1.2-.4-.4-.7-.8-1.1-1.2-1.6-2.1-2.6-4.5-2.9-7-.1-1.1-.1-2.2,0-3.4.3-2.5,1.3-4.9,2.9-6.9.4-.5.7-.9,1.2-1.3.4-.4.8-.7,1.2-1.1,2.5-2,5.6-3,8.6-3s7.2,1.4,10,4.2c5.4,5.5,5.4,14.4-.1,19.8Z"/>
    <path class="st1" d="M456.9,350.1c-2.7,2.7-6.3,4-9.8,4s-7.2-1.4-10-4.2c-5-5.1-5.3-13-1.1-18.5.4-.5.7-.9,1.2-1.3.4-.4.8-.7,1.2-1.1,2.1-1.6,4.5-2.6,6.9-2.9.6,0,1.1-.1,1.7-.1s1.1,0,1.7.1c2.5.3,4.9,1.3,6.9,2.9.5.4.9.7,1.3,1.2.4.4.7.8,1.1,1.2,4.3,5.5,3.9,13.5-1.2,18.6Z"/>
    <path class="st1" d="M382.7,263.6c-.3,2.5-1.3,4.9-2.9,6.9-.4.5-.7.9-1.2,1.3-.4.4-.8.7-1.2,1.1-2.5,2-5.6,3-8.6,3s-7.2-1.4-10-4.2c-5.4-5.5-5.4-14.4.1-19.8,2.7-2.7,6.3-4,9.8-4s6.1,1,8.6,3c.5.4.9.8,1.3,1.2.4.4.7.8,1.1,1.2,1.6,2.1,2.6,4.5,2.9,6.9.1,1.1.1,2.2,0,3.4Z"/>
    <path class="st1" d="M460.9,263.6c-.4,3-1.7,6-4.1,8.3-2.3,2.3-5.2,3.6-8.1,3.9-.6,0-1.1.1-1.7.1s-1.1,0-1.7-.1c-3-.4-6-1.7-8.3-4.1-2.3-2.3-3.6-5.2-3.9-8.1-.1-1.1-.1-2.2,0-3.4.4-3,1.7-6,4.1-8.3,2.3-2.3,5.2-3.6,8.1-3.9.6,0,1.1-.1,1.7-.1s1.1,0,1.7.1c3,.4,6,1.7,8.3,4.1,2.3,2.3,3.6,5.2,3.9,8.1.1,1.1.1,2.2,0,3.4Z"/>
  </g>
  <g>
    <path class="st0" d="M265.2,421.3h-5.3v-39.3h5.3l21.6,32.6h-1.5v-32.6h5.3v39.3h-5.3l-21.6-32.6h1.5v32.6Z"/>
    <path class="st0" d="M310.5,422c-2.6,0-4.9-.6-6.9-1.8-2-1.2-3.6-2.8-4.7-4.9-1.1-2.1-1.7-4.5-1.7-7.3s.6-5.2,1.7-7.3c1.1-2.1,2.6-3.8,4.6-5s4.2-1.8,6.8-1.8,4.7.5,6.6,1.6c1.9,1.1,3.3,2.6,4.4,4.6s1.6,4.3,1.6,6.9v1.9h-22.8c0,0,.1-3.4.1-3.4h17.6c0-2.2-.7-4-2-5.3-1.3-1.3-3.1-2-5.4-2s-3.2.4-4.4,1.1c-1.2.7-2.1,1.8-2.8,3.3s-1,3.1-1,5.1c0,3.2.7,5.6,2.2,7.4,1.4,1.7,3.5,2.6,6.3,2.6s3.6-.4,4.9-1.2c1.3-.8,2.1-2,2.6-3.5h4.8c-.7,2.8-2,5-4.2,6.6-2.1,1.6-4.9,2.3-8.2,2.3Z"/>
    <path class="st0" d="M326.7,408c0-2.7.6-5.1,1.8-7.2,1.2-2.1,2.8-3.8,4.9-5,2.1-1.2,4.5-1.8,7.2-1.8s5.1.6,7.1,1.8c2.1,1.2,3.7,2.8,4.9,5,1.2,2.1,1.8,4.5,1.8,7.2s-.6,5.1-1.8,7.2c-1.2,2.1-2.8,3.8-4.9,5-2.1,1.2-4.4,1.8-7.1,1.8s-5.1-.6-7.2-1.8c-2.1-1.2-3.7-2.8-4.9-5-1.2-2.1-1.8-4.5-1.8-7.2ZM331.9,408c0,1.8.4,3.5,1.1,4.9.7,1.4,1.8,2.5,3.1,3.3,1.3.8,2.8,1.2,4.5,1.2s3.2-.4,4.5-1.2c1.3-.8,2.3-1.9,3.1-3.3.7-1.4,1.1-3,1.1-4.9s-.4-3.5-1.1-4.9c-.7-1.4-1.8-2.5-3.1-3.3-1.3-.8-2.8-1.2-4.5-1.2s-3.2.4-4.5,1.2c-1.3.8-2.3,1.9-3.1,3.3-.7,1.4-1.1,3-1.1,4.9Z"/>
    <path class="st0" d="M358.7,392.6c0-2.2.6-4.2,1.7-5.9,1.1-1.7,2.7-3,4.8-4,2-.9,4.4-1.4,7.1-1.4s4.7.4,6.6,1.3c1.9.9,3.3,2.1,4.4,3.8,1.1,1.6,1.7,3.6,1.8,5.9h-5.4c-.1-2-.9-3.5-2.2-4.6-1.3-1.1-3.1-1.6-5.3-1.6s-4.4.6-5.9,1.7c-1.5,1.1-2.2,2.7-2.2,4.7s.5,2.9,1.4,3.8c.9,1,2.3,1.7,4.1,2.1l6.5,1.5c3.2.7,5.6,2,7.3,3.7,1.6,1.8,2.4,4,2.4,6.8s-.6,4.4-1.7,6.1c-1.1,1.7-2.8,3.1-4.8,4-2.1.9-4.5,1.4-7.3,1.4s-5-.4-7-1.3-3.6-2.2-4.7-3.8c-1.1-1.6-1.8-3.6-1.9-5.8h5.4c0,1.9.8,3.4,2.3,4.5s3.5,1.7,5.9,1.7,4.7-.6,6.2-1.7c1.5-1.2,2.3-2.7,2.3-4.6s-.4-2.8-1.3-3.8c-.9-1-2.2-1.7-4.1-2.1l-6.5-1.5c-3.2-.7-5.6-2-7.3-3.8-1.7-1.8-2.5-4.2-2.5-7Z"/>
    <path class="st0" d="M396.6,421.2h-5.1v-40h5.1v17.5c.8-1.4,2-2.6,3.6-3.5,1.6-.9,3.4-1.3,5.4-1.3,3.4,0,5.9,1,7.6,3,1.7,2,2.5,4.7,2.5,8.1v16.3h-5.1v-15.1c0-1.8-.3-3.3-.8-4.4-.5-1.1-1.3-1.9-2.2-2.4-1-.5-2.1-.8-3.3-.8s-3,.4-4.2,1.1c-1.1.7-2,1.7-2.6,2.9-.6,1.2-.9,2.6-.9,4.1v14.5Z"/>
    <path class="st0" d="M425.2,388.4c-.9,0-1.7-.3-2.4-1-.7-.7-1-1.5-1-2.4s.3-1.7,1-2.4c.7-.7,1.5-1,2.4-1s1.7.3,2.4,1,1,1.5,1,2.4-.3,1.7-1,2.4c-.7.7-1.5,1-2.4,1ZM422.7,421.3v-26.6h5.1v26.6h-5.1Z"/>
    <path class="st0" d="M446.7,422c-2.6,0-4.9-.6-6.9-1.8s-3.6-2.8-4.7-4.9c-1.1-2.1-1.7-4.5-1.7-7.3s.6-5.2,1.7-7.3c1.1-2.1,2.6-3.8,4.6-5s4.2-1.8,6.8-1.8,4.7.5,6.6,1.6c1.9,1.1,3.3,2.6,4.4,4.6s1.6,4.3,1.6,6.9v1.9h-22.8c0,0,.1-3.4.1-3.4h17.6c0-2.2-.7-4-2-5.3-1.3-1.3-3.1-2-5.4-2s-3.2.4-4.4,1.1c-1.2.7-2.1,1.8-2.8,3.3s-1,3.1-1,5.1c0,3.2.7,5.6,2.2,7.4,1.4,1.7,3.5,2.6,6.3,2.6s3.6-.4,4.9-1.2c1.3-.8,2.1-2,2.6-3.5h4.8c-.7,2.8-2,5-4.2,6.6-2.1,1.6-4.9,2.3-8.2,2.3Z"/>
    <path class="st0" d="M470,421.3h-5.1v-40h5.1v40Z"/>
    <path class="st0" d="M488.1,422c-2.6,0-4.8-.6-6.6-1.8-1.9-1.2-3.3-2.8-4.3-4.9-1-2.1-1.5-4.5-1.5-7.2s.5-5.1,1.5-7.3c1-2.1,2.5-3.8,4.4-5,1.9-1.2,4.1-1.8,6.7-1.8s3.9.4,5.5,1.3c1.6.9,2.9,2.1,3.8,3.8v-17.7h5.1v40h-4.6l-.4-4.8c-.9,1.8-2.1,3.1-3.8,4.1-1.7.9-3.6,1.4-5.7,1.4ZM489.2,417.3c1.7,0,3.2-.4,4.5-1.2,1.3-.8,2.2-1.9,2.9-3.3.7-1.4,1-3,1-4.9s-.3-3.5-1-4.9c-.7-1.4-1.7-2.5-2.9-3.3-1.3-.8-2.7-1.2-4.5-1.2s-3.2.4-4.5,1.2c-1.2.8-2.2,1.9-2.8,3.3-.7,1.4-1,3-1,4.8s.3,3.5,1,4.9c.7,1.4,1.6,2.5,2.8,3.3,1.2.8,2.7,1.2,4.5,1.2Z"/>
    <path class="st1" d="M522,386.9v-4.9h29v4.9h-29ZM539.2,384.4v36.9h-5.3v-36.9h5.3Z"/>
    <path class="st1" d="M562.7,422c-2.6,0-4.9-.6-6.9-1.8-2-1.2-3.6-2.8-4.7-4.9-1.1-2.1-1.7-4.5-1.7-7.3s.6-5.2,1.7-7.3c1.1-2.1,2.6-3.8,4.6-5s4.2-1.8,6.8-1.8,4.7.5,6.6,1.6c1.9,1.1,3.3,2.6,4.4,4.6s1.6,4.3,1.6,6.9v1.9h-22.8c0,0,.1-3.4.1-3.4h17.6c0-2.2-.7-4-2-5.3-1.3-1.3-3.1-2-5.4-2s-3.2.4-4.4,1.1c-1.2.7-2.1,1.8-2.8,3.3s-1,3.1-1,5.1c0,3.2.7,5.6,2.2,7.4,1.4,1.7,3.5,2.6,6.3,2.6s3.6-.4,4.9-1.2c1.3-.8,2.1-2,2.6-3.5h4.8c-.7,2.8-2,5-4.2,6.6-2.1,1.6-4.9,2.3-8.2,2.3Z"/>
    <path class="st1" d="M579,408c0-2.8.6-5.2,1.7-7.3,1.1-2.1,2.6-3.8,4.6-5,2-1.2,4.2-1.8,6.8-1.8s6.1.9,8.3,2.7c2.2,1.8,3.5,4.1,4,7.1h-5.1c-.4-1.7-1.3-3-2.6-3.9-1.3-.9-2.8-1.3-4.5-1.3s-3,.4-4.2,1.2c-1.2.8-2.2,1.9-2.9,3.3-.7,1.4-1,3.1-1,5s.3,3.6,1,5c.7,1.4,1.6,2.5,2.8,3.3,1.2.8,2.6,1.2,4.2,1.2s3.4-.5,4.7-1.4,2.2-2.1,2.6-3.7h5.1c-.3,1.9-1.1,3.6-2.2,5-1.1,1.4-2.6,2.6-4.4,3.4-1.8.8-3.7,1.2-5.8,1.2s-4.9-.6-6.8-1.7-3.5-2.8-4.5-4.9c-1.1-2.1-1.6-4.5-1.6-7.3Z"/>
    <path class="st1" d="M614.9,421.2h-5.1v-40h5.1v17.5c.8-1.4,2-2.6,3.6-3.5,1.6-.9,3.4-1.3,5.4-1.3,3.4,0,5.9,1,7.6,3,1.7,2,2.5,4.7,2.5,8.1v16.3h-5.1v-15.1c0-1.8-.3-3.3-.8-4.4-.5-1.1-1.3-1.9-2.2-2.4-1-.5-2.1-.8-3.3-.8s-3,.4-4.2,1.1c-1.1.7-2,1.7-2.6,2.9-.6,1.2-.9,2.6-.9,4.1v14.5Z"/>
  </g>
</svg>