<?xml version="1.0" encoding="UTF-8"?>
<svg id="Livello_1" xmlns="http://www.w3.org/2000/svg" version="1.1" viewBox="0 0 841.9 595.3">
  <!-- Generator: Adobe Illustrator 30.3.0, SVG Export Plug-In . SVG Version: 2.1.3 Build 182)  -->
  <defs>
    <style>
      .st0 {
        fill: #fce9f3;
      }

      .st1 {
        fill: #f2c5de;
      }
    </style>
  </defs>
  <path class="st0" d="M303.2,248.3c1.1-4.5.7-9.5-1.1-14.9-1.8-5.4-5.5-10.8-10.9-16.2,8.1,8.1,15.9,12.3,23.4,12.8,7.5.5,13.9-1.9,19-7-3.2,3.2-5.3,7.1-6.4,11.6-1.1,4.5-.6,9.5,1.3,14.8,1.9,5.3,5.6,10.6,10.9,16-5.2-5.2-10.6-8.8-16-10.6-5.4-1.8-10.4-2.2-15-1.2-4.6,1-8.4,3-11.4,6.1,3-3,5.1-6.8,6.2-11.3Z"/>
  <g>
    <path class="st1" d="M205.4,291.1c-2.8-4.6-5.2-8.3-7.3-11.1v71.3c0,5.7.5,10.8,1.6,15.4,1,4.6,2.4,7.7,4.1,9.3h-14.1c1.7-1.6,3.1-4.7,4.1-9.3,1-4.6,1.6-9.7,1.6-15.4v-74.8c-3.8-4.9-7.1-7.9-9.9-9.1h23.6c-.4.9-.5,1.7-.5,2.4,0,4.1,3,11.2,9.1,21.3l38.7,64.6v-63.7c0-5.7-.5-10.8-1.6-15.4-1-4.6-2.4-7.7-4.1-9.3h14.1c-1.7,1.6-3.1,4.7-4.1,9.3-1,4.6-1.6,9.7-1.6,15.4v83.9h-2.7l-50.9-84.8Z"/>
    <path class="st1" d="M351.4,290.7c-4-8.5-9.4-14.8-16.1-19-6.7-4.2-14.1-6.3-22-6.3s-15.3,2.1-21.9,6.3c-6.7,4.2-12,10.5-16,19-4,8.4-6,18.8-6,31s2,22.6,6,31.1c4,8.5,9.3,14.9,16,19.1,6.7,4.2,14,6.3,21.9,6.3s15.3-2.1,22-6.4c6.7-4.2,12.1-10.6,16.1-19.1,4-8.5,6-18.8,6-31s-2-22.4-6-30.9ZM338,364.6c-5.4,6.5-12,9.8-20,9.8s-11-1.6-16.1-4.9c-5.1-3.3-9.6-8.9-13.4-16.7-3.8-7.9-6.2-18.2-7.3-31.2-.3-3.8-.4-7.4-.4-10.7,0-14.9,2.7-25.6,8-32.1,5.3-6.5,11.9-9.8,19.8-9.8s11,1.6,16.2,4.9c5.2,3.3,9.7,8.8,13.5,16.6,3.8,7.8,6.3,18.2,7.4,31.1.3,3.8.4,7.4.4,10.7,0,15-2.7,25.8-8.1,32.3Z"/>
    <path class="st1" d="M368.3,366.6c1-4.6,1.6-9.7,1.6-15.4v-59.2c0-5.7-.5-10.8-1.6-15.4-1-4.6-2.4-7.7-4.1-9.3h14.8c1.7,0,3.3-.1,4.9-.4,1.5-.3,2.5-.5,2.8-.5,3.4-.7,6.4-1.1,8.8-1.1,7.3,0,13.9,1.4,19.8,4.1,5.9,2.7,10.5,6.8,14,12.2,3.4,5.4,5.1,12.1,5.1,19.9s-1.4,12.3-4.3,17.5c-2.9,5.1-6.8,9.2-11.7,12.1.9,1.5,1.8,3.6,2.7,6.2l6.1,17.9c1.9,5,4,9.2,6.4,12.7,2.3,3.5,4.7,6.2,6.9,8h-17.2l-13-38.2c-1.4-4.4-3.5-8.5-6.3-12.3-2.8-3.7-6.1-5.6-10-5.6s-7.6,2.3-10.2,7c-2.5,4.7-3.8,12.5-3.8,23.4v.9c0,5.7.5,10.8,1.6,15.4,1,4.6,2.4,7.7,4.1,9.3h-21.5c1.7-1.6,3.1-4.7,4.1-9.3ZM381.9,324.6c1.2-2.4,3-4.4,5.3-5.9,2.3-1.5,4.9-2.3,7.9-2.3,8.6,0,15.4,3.3,20.5,10,2.2-2.5,3.8-5.7,5-9.4,1.2-3.7,1.8-7.9,1.8-12.4s-.2-3.9-.5-7.2c-1.4-10.6-4.9-18.1-10.2-22.6-5.4-4.5-11.2-6.8-17.5-6.8s-7.1,1.2-9.1,3.5c-2,2.3-3.3,5.1-3.9,8.4-.6,3.3-.9,7.3-.9,12v40c0-2.4.6-4.9,1.8-7.2Z"/>
    <path class="st1" d="M451.4,366.6c1-4.6,1.6-9.7,1.6-15.4v-59.2c0-5.7-.5-10.8-1.6-15.4-1-4.6-2.4-7.7-4.1-9.3h21.5c-1.7,1.6-3.1,4.7-4.1,9.3-1,4.6-1.6,9.7-1.6,15.4v59.2c0,5.7.5,10.8,1.6,15.4,1,4.6,2.4,7.7,4.1,9.3h-21.5c1.7-1.6,3.1-4.7,4.1-9.3Z"/>
    <path class="st1" d="M480.2,366.6c1-4.6,1.6-9.7,1.6-15.4v-74.7c-2.6-4.1-5-7.1-7-9.2h22.6c-1.2,1.1-1.8,2.8-1.8,5.3s.4,4.4,1.2,7.3c.8,2.9,1.9,6.6,3.5,11.1l15.6,45c1.8,5.3,3.6,10.1,5.3,14.4l35.5-83.1h15.9c-1.7,1.6-3.1,4.7-4.1,9.3-1,4.6-1.6,9.7-1.6,15.4v42.3c0,9.8-.4,17.5-1.2,23.4-.8,5.8-2.8,10.7-6.2,14.5-3.3,3.8-8.5,5.8-15.6,5.8s-12.8-1.5-17.5-4.5c-4.7-3-8.7-7.6-12-13.8-3.3-6.1-6.7-14.5-10.2-25.1l-15.3-44.2c-1.3-3.1-2.7-6.1-4.3-9.2v70c0,5.7.5,10.8,1.6,15.4,1,4.6,2.4,7.7,4.1,9.3h-14.1c1.7-1.6,3.1-4.7,4.1-9.3ZM532.3,369.6c3.4,3.7,7.3,5.6,11.5,5.6s6.9-2,8.7-6c1.9-4,3-8.7,3.4-14.3.4-5.6.6-12.7.6-21.5v-59.2l-34,79.5c3.1,6.8,6.3,12,9.8,15.8Z"/>
    <path class="st1" d="M635.6,370.6c0-2-.4-4.4-1.2-7.3-.8-2.9-1.9-6.6-3.5-11.1l-8.3-22.8c.3,3.3.4,6.6.4,9.9,0,11.8-2.2,21-6.6,27.4-4.4,6.4-11.2,9.6-20.3,9.6s-11.3-1.7-14.4-5c-3.1-3.3-4.6-8-4.6-14s1.5-13.7,4.6-22.1l20.6-57.2c-2.9-4.9-5.6-8.4-8-10.7h16.8l31.2,85.6c2.1,5.1,4.4,9.7,7.1,13.8,2.7,4.2,5,7.2,7,9.1h-22.6c1.2-1.1,1.8-2.8,1.8-5.3ZM579.7,357.5c0,10.8,5.5,16.1,16.4,16.1s8.5-1.9,11.4-5.6c2.9-3.7,4.9-9,5.8-16,.4-5.1-.6-8.9-2.8-11.4-2.3-2.6-5.5-4-9.6-4.3l12.3-6.2,8.3-4.1-13-35.8c-1.3-3.1-2.7-6.1-4.3-9.2l-19.4,53.9c-3.3,9.3-5,16.8-5,22.5Z"/>
  </g>
</svg>